G04 Layer_Color=16711935*
%FSLAX23Y23*%
%MOIN*%
G70*
G01*
G75*
%ADD66C,0.075*%
%ADD67C,0.067*%
%ADD68R,0.120X0.106*%
%ADD69C,0.095*%
%ADD70C,0.081*%
%ADD71R,0.126X0.102*%
%ADD72C,0.077*%
%ADD73R,0.067X0.067*%
%ADD74C,0.110*%
%ADD75C,0.091*%
%ADD76C,0.058*%
D66*
X2319Y2609D02*
D03*
Y2908D02*
D03*
Y2759D02*
D03*
Y2460D02*
D03*
Y2310D02*
D03*
D67*
X3049Y2874D02*
D03*
Y2776D02*
D03*
Y2677D02*
D03*
X4596Y2206D02*
D03*
X4496Y2206D02*
D03*
X4596Y2306D02*
D03*
X4496Y2306D02*
D03*
X4596Y2406D02*
D03*
X4496Y2407D02*
D03*
X4596Y2506D02*
D03*
X4496Y2507D02*
D03*
X4596Y2606D02*
D03*
X4496Y2607D02*
D03*
X4596Y2706D02*
D03*
X4496Y2707D02*
D03*
X4596Y2806D02*
D03*
X4496Y2807D02*
D03*
X4596Y2906D02*
D03*
X4496Y2907D02*
D03*
X4596Y3006D02*
D03*
X4496Y3007D02*
D03*
X4596Y3106D02*
D03*
X4496Y3108D02*
D03*
X4596Y3206D02*
D03*
X4496Y3208D02*
D03*
X4596Y3306D02*
D03*
X4496Y3308D02*
D03*
X4596Y3406D02*
D03*
X4496Y3408D02*
D03*
X4596Y3506D02*
D03*
X4496Y3508D02*
D03*
X4596Y3606D02*
D03*
X4496Y3608D02*
D03*
X4596Y3706D02*
D03*
X4496Y3708D02*
D03*
X4596Y3806D02*
D03*
X4496Y3809D02*
D03*
X4596Y3906D02*
D03*
X4496Y3909D02*
D03*
X4596Y4006D02*
D03*
X4496Y4009D02*
D03*
X4596Y4106D02*
D03*
X2196Y2206D02*
D03*
X2096Y2206D02*
D03*
X2196Y2306D02*
D03*
X2096Y2306D02*
D03*
X2196Y2406D02*
D03*
X2096Y2407D02*
D03*
X2196Y2506D02*
D03*
X2096Y2507D02*
D03*
X2196Y2606D02*
D03*
X2096Y2607D02*
D03*
X2196Y2706D02*
D03*
X2096Y2707D02*
D03*
X2196Y2806D02*
D03*
X2096Y2807D02*
D03*
X2196Y2906D02*
D03*
X2096Y2907D02*
D03*
X2196Y3006D02*
D03*
X2096Y3007D02*
D03*
X2196Y3106D02*
D03*
X2096Y3108D02*
D03*
X2196Y3206D02*
D03*
X2096Y3208D02*
D03*
X2196Y3306D02*
D03*
X2096Y3308D02*
D03*
X2196Y3406D02*
D03*
X2096Y3408D02*
D03*
X2196Y3506D02*
D03*
X2096Y3508D02*
D03*
X2196Y3606D02*
D03*
X2096Y3608D02*
D03*
X2196Y3706D02*
D03*
X2096Y3708D02*
D03*
X2196Y3806D02*
D03*
X2096Y3809D02*
D03*
X2196Y3906D02*
D03*
X2096Y3909D02*
D03*
X2196Y4006D02*
D03*
X2096Y4009D02*
D03*
X2196Y4106D02*
D03*
D68*
X2774Y2567D02*
D03*
Y2984D02*
D03*
D69*
X3541Y3153D02*
D03*
X3494Y3483D02*
D03*
X2746Y3153D02*
D03*
X2793Y3483D02*
D03*
X2890Y2329D02*
D03*
Y2132D02*
D03*
X2693D02*
D03*
Y2329D02*
D03*
X3454D02*
D03*
Y2132D02*
D03*
X3257D02*
D03*
Y2329D02*
D03*
D70*
X3704Y3387D02*
D03*
X2583Y3249D02*
D03*
Y3387D02*
D03*
D71*
X3435Y2994D02*
D03*
Y2553D02*
D03*
D72*
X3159Y2872D02*
D03*
Y2675D02*
D03*
X3730Y2872D02*
D03*
Y2774D02*
D03*
Y2675D02*
D03*
D73*
X4496Y4106D02*
D03*
X2096D02*
D03*
D74*
X2323Y3936D02*
D03*
Y4133D02*
D03*
X2823Y3936D02*
D03*
Y4133D02*
D03*
D75*
X2573Y3936D02*
D03*
Y4133D02*
D03*
X2671Y4035D02*
D03*
X2474D02*
D03*
X2573D02*
D03*
D76*
X4284Y3706D02*
D03*
X3623Y3703D02*
D03*
X2911Y2685D02*
D03*
X2795Y2244D02*
D03*
X4089Y3050D02*
D03*
X4211Y2681D02*
D03*
X4426Y2685D02*
D03*
X4264Y3245D02*
D03*
X4199Y3247D02*
D03*
X4134Y3248D02*
D03*
X2882Y3625D02*
D03*
X3007Y3867D02*
D03*
X3129Y3863D02*
D03*
X2942Y3868D02*
D03*
X4113Y3704D02*
D03*
X3865D02*
D03*
X3209Y3726D02*
D03*
X3579Y3387D02*
D03*
X4184Y2953D02*
D03*
X4180Y3048D02*
D03*
M02*
