G04 Layer_Color=128*
%FSLAX23Y23*%
%MOIN*%
G70*
G01*
G75*
%ADD42C,0.002*%
D42*
X2299Y2609D02*
X2339D01*
X2319Y2589D02*
Y2629D01*
X3030Y2874D02*
X3069D01*
X3049Y2854D02*
Y2894D01*
X3030Y2776D02*
X3069D01*
X3049Y2756D02*
Y2795D01*
X3030Y2677D02*
X3069D01*
X3049Y2657D02*
Y2697D01*
X2738Y2567D02*
X2809D01*
X2774Y2531D02*
Y2602D01*
X2738Y2984D02*
X2809D01*
X2774Y2949D02*
Y3020D01*
X3508Y3153D02*
X3575D01*
X3541Y3119D02*
Y3186D01*
X3461Y3483D02*
X3528D01*
X3494Y3450D02*
Y3517D01*
X2713Y3153D02*
X2780D01*
X2746Y3119D02*
Y3186D01*
X2760Y3483D02*
X2827D01*
X2793Y3450D02*
Y3517D01*
X3681Y3387D02*
X3728D01*
X3704Y3363D02*
Y3410D01*
X2559Y3249D02*
X2606D01*
X2583Y3225D02*
Y3273D01*
X2559Y3387D02*
X2606D01*
X2583Y3363D02*
Y3410D01*
X2299Y2908D02*
X2339D01*
X2319Y2888D02*
Y2929D01*
X2299Y2759D02*
X2339D01*
X2319Y2739D02*
Y2779D01*
X2299Y2460D02*
X2339D01*
X2319Y2440D02*
Y2480D01*
X2299Y2310D02*
X2339D01*
X2319Y2290D02*
Y2330D01*
X3396Y2994D02*
X3474D01*
X3435Y2955D02*
Y3033D01*
X3396Y2553D02*
X3474D01*
X3435Y2514D02*
Y2593D01*
X3136Y2872D02*
X3183D01*
X3159Y2848D02*
Y2896D01*
X3136Y2675D02*
X3183D01*
X3159Y2652D02*
Y2699D01*
X3707Y2872D02*
X3754D01*
X3730Y2848D02*
Y2896D01*
X3707Y2774D02*
X3754D01*
X3730Y2750D02*
Y2797D01*
X3707Y2675D02*
X3754D01*
X3730Y2652D02*
Y2699D01*
X4579Y2206D02*
X4614D01*
X4596Y2189D02*
Y2224D01*
X4479Y2206D02*
X4514D01*
X4496Y2189D02*
Y2224D01*
X4579Y2306D02*
X4614D01*
X4596Y2289D02*
Y2324D01*
X4479Y2306D02*
X4514D01*
X4496Y2289D02*
Y2324D01*
X4579Y2406D02*
X4614D01*
X4596Y2389D02*
Y2424D01*
X4479Y2407D02*
X4514D01*
X4496Y2389D02*
Y2424D01*
X4579Y2506D02*
X4614D01*
X4596Y2489D02*
Y2524D01*
X4479Y2507D02*
X4514D01*
X4496Y2489D02*
Y2524D01*
X4579Y2606D02*
X4614D01*
X4596Y2589D02*
Y2624D01*
X4479Y2607D02*
X4514D01*
X4496Y2589D02*
Y2625D01*
X4579Y2706D02*
X4614D01*
X4596Y2689D02*
Y2724D01*
X4479Y2707D02*
X4514D01*
X4496Y2689D02*
Y2725D01*
X4579Y2806D02*
X4614D01*
X4596Y2789D02*
Y2824D01*
X4479Y2807D02*
X4514D01*
X4496Y2789D02*
Y2825D01*
X4579Y2906D02*
X4614D01*
X4596Y2889D02*
Y2924D01*
X4479Y2907D02*
X4514D01*
X4496Y2890D02*
Y2925D01*
X4579Y3006D02*
X4614D01*
X4596Y2989D02*
Y3024D01*
X4479Y3007D02*
X4514D01*
X4496Y2990D02*
Y3025D01*
X4579Y3106D02*
X4614D01*
X4596Y3089D02*
Y3124D01*
X4479Y3108D02*
X4514D01*
X4496Y3090D02*
Y3125D01*
X4579Y3206D02*
X4614D01*
X4596Y3189D02*
Y3224D01*
X4479Y3208D02*
X4514D01*
X4496Y3190D02*
Y3225D01*
X4579Y3306D02*
X4614D01*
X4596Y3289D02*
Y3324D01*
X4479Y3308D02*
X4514D01*
X4496Y3290D02*
Y3326D01*
X4579Y3406D02*
X4614D01*
X4596Y3389D02*
Y3424D01*
X4479Y3408D02*
X4514D01*
X4496Y3390D02*
Y3426D01*
X4579Y3506D02*
X4614D01*
X4596Y3489D02*
Y3524D01*
X4479Y3508D02*
X4514D01*
X4496Y3490D02*
Y3526D01*
X4579Y3606D02*
X4614D01*
X4596Y3589D02*
Y3624D01*
X4479Y3608D02*
X4514D01*
X4496Y3591D02*
Y3626D01*
X4579Y3706D02*
X4614D01*
X4596Y3689D02*
Y3724D01*
X4479Y3708D02*
X4514D01*
X4496Y3691D02*
Y3726D01*
X4579Y3806D02*
X4614D01*
X4596Y3789D02*
Y3824D01*
X4479Y3809D02*
X4514D01*
X4496Y3791D02*
Y3826D01*
X4579Y3906D02*
X4614D01*
X4596Y3889D02*
Y3924D01*
X4479Y3909D02*
X4514D01*
X4496Y3891D02*
Y3926D01*
X4579Y4006D02*
X4614D01*
X4596Y3989D02*
Y4024D01*
X4479Y4009D02*
X4514D01*
X4496Y3991D02*
Y4027D01*
X4579Y4106D02*
X4614D01*
X4596Y4089D02*
Y4124D01*
X4479Y4106D02*
X4514D01*
X4496Y4089D02*
Y4124D01*
X2179Y2206D02*
X2214D01*
X2196Y2189D02*
Y2224D01*
X2079Y2206D02*
X2114D01*
X2096Y2189D02*
Y2224D01*
X2179Y2306D02*
X2214D01*
X2196Y2289D02*
Y2324D01*
X2079Y2306D02*
X2114D01*
X2096Y2289D02*
Y2324D01*
X2179Y2406D02*
X2214D01*
X2196Y2389D02*
Y2424D01*
X2079Y2407D02*
X2114D01*
X2096Y2389D02*
Y2424D01*
X2179Y2506D02*
X2214D01*
X2196Y2489D02*
Y2524D01*
X2079Y2507D02*
X2114D01*
X2096Y2489D02*
Y2524D01*
X2179Y2606D02*
X2214D01*
X2196Y2589D02*
Y2624D01*
X2079Y2607D02*
X2114D01*
X2096Y2589D02*
Y2625D01*
X2179Y2706D02*
X2214D01*
X2196Y2689D02*
Y2724D01*
X2079Y2707D02*
X2114D01*
X2096Y2689D02*
Y2725D01*
X2179Y2806D02*
X2214D01*
X2196Y2789D02*
Y2824D01*
X2079Y2807D02*
X2114D01*
X2096Y2789D02*
Y2825D01*
X2179Y2906D02*
X2214D01*
X2196Y2889D02*
Y2924D01*
X2079Y2907D02*
X2114D01*
X2096Y2890D02*
Y2925D01*
X2179Y3006D02*
X2214D01*
X2196Y2989D02*
Y3024D01*
X2079Y3007D02*
X2114D01*
X2096Y2990D02*
Y3025D01*
X2179Y3106D02*
X2214D01*
X2196Y3089D02*
Y3124D01*
X2079Y3108D02*
X2114D01*
X2096Y3090D02*
Y3125D01*
X2179Y3206D02*
X2214D01*
X2196Y3189D02*
Y3224D01*
X2079Y3208D02*
X2114D01*
X2096Y3190D02*
Y3225D01*
X2179Y3306D02*
X2214D01*
X2196Y3289D02*
Y3324D01*
X2079Y3308D02*
X2114D01*
X2096Y3290D02*
Y3326D01*
X2179Y3406D02*
X2214D01*
X2196Y3389D02*
Y3424D01*
X2079Y3408D02*
X2114D01*
X2096Y3390D02*
Y3426D01*
X2179Y3506D02*
X2214D01*
X2196Y3489D02*
Y3524D01*
X2079Y3508D02*
X2114D01*
X2096Y3490D02*
Y3526D01*
X2179Y3606D02*
X2214D01*
X2196Y3589D02*
Y3624D01*
X2079Y3608D02*
X2114D01*
X2096Y3591D02*
Y3626D01*
X2179Y3706D02*
X2214D01*
X2196Y3689D02*
Y3724D01*
X2079Y3708D02*
X2114D01*
X2096Y3691D02*
Y3726D01*
X2179Y3806D02*
X2214D01*
X2196Y3789D02*
Y3824D01*
X2079Y3809D02*
X2114D01*
X2096Y3791D02*
Y3826D01*
X2179Y3906D02*
X2214D01*
X2196Y3889D02*
Y3924D01*
X2079Y3909D02*
X2114D01*
X2096Y3891D02*
Y3926D01*
X2179Y4006D02*
X2214D01*
X2196Y3989D02*
Y4024D01*
X2079Y4009D02*
X2114D01*
X2096Y3991D02*
Y4027D01*
X2179Y4106D02*
X2214D01*
X2196Y4089D02*
Y4124D01*
X2079Y4106D02*
X2114D01*
X2096Y4089D02*
Y4124D01*
X2288Y3936D02*
X2358D01*
X2323Y3901D02*
Y3971D01*
X2288Y4133D02*
X2358D01*
X2323Y4098D02*
Y4168D01*
X2788Y3936D02*
X2858D01*
X2823Y3901D02*
Y3971D01*
X2788Y4133D02*
X2858D01*
X2823Y4098D02*
Y4168D01*
X2545Y3936D02*
X2600D01*
X2573Y3909D02*
Y3964D01*
X2545Y4133D02*
X2600D01*
X2573Y4106D02*
Y4161D01*
X2644Y4035D02*
X2699D01*
X2671Y4007D02*
Y4062D01*
X2447Y4035D02*
X2502D01*
X2474Y4007D02*
Y4062D01*
X2545Y4035D02*
X2600D01*
X2573Y4007D02*
Y4062D01*
X2868Y2329D02*
X2911D01*
X2890Y2307D02*
Y2350D01*
X2868Y2132D02*
X2911D01*
X2890Y2110D02*
Y2154D01*
X2671Y2132D02*
X2715D01*
X2693Y2110D02*
Y2154D01*
X2671Y2329D02*
X2715D01*
X2693Y2307D02*
Y2350D01*
X3432Y2329D02*
X3475D01*
X3454Y2307D02*
Y2350D01*
X3432Y2132D02*
X3475D01*
X3454Y2110D02*
Y2154D01*
X3235Y2132D02*
X3279D01*
X3257Y2110D02*
Y2154D01*
X3235Y2329D02*
X3279D01*
X3257Y2307D02*
Y2350D01*
X4270Y3706D02*
X4298D01*
X4284Y3692D02*
Y3720D01*
X3609Y3703D02*
X3637D01*
X3623Y3689D02*
Y3717D01*
X2897Y2685D02*
X2925D01*
X2911Y2671D02*
Y2699D01*
X2781Y2244D02*
X2809D01*
X2795Y2230D02*
Y2258D01*
X4075Y3050D02*
X4103D01*
X4089Y3036D02*
Y3064D01*
X4197Y2681D02*
X4225D01*
X4211Y2667D02*
Y2695D01*
X4412Y2685D02*
X4440D01*
X4426Y2671D02*
Y2699D01*
X4250Y3245D02*
X4278D01*
X4264Y3231D02*
Y3259D01*
X4185Y3247D02*
X4213D01*
X4199Y3233D02*
Y3261D01*
X4120Y3248D02*
X4148D01*
X4134Y3234D02*
Y3262D01*
X2868Y3625D02*
X2896D01*
X2882Y3611D02*
Y3639D01*
X2993Y3867D02*
X3021D01*
X3007Y3853D02*
Y3881D01*
X3115Y3863D02*
X3143D01*
X3129Y3849D02*
Y3877D01*
X2928Y3868D02*
X2956D01*
X2942Y3854D02*
Y3882D01*
X4099Y3704D02*
X4127D01*
X4113Y3690D02*
Y3718D01*
X3851Y3704D02*
X3879D01*
X3865Y3690D02*
Y3718D01*
X3195Y3726D02*
X3223D01*
X3209Y3712D02*
Y3740D01*
X3565Y3387D02*
X3593D01*
X3579Y3373D02*
Y3401D01*
X4170Y2953D02*
X4198D01*
X4184Y2939D02*
Y2967D01*
X4166Y3048D02*
X4194D01*
X4180Y3034D02*
Y3062D01*
M02*
