G04 Layer_Color=2752767*
%FSLAX23Y23*%
%MOIN*%
G70*
G01*
G75*
%ADD42C,0.002*%
%ADD77C,0.003*%
%ADD78C,0.001*%
D42*
X2311Y2601D02*
Y2617D01*
X2327D01*
Y2601D01*
X2311D01*
X2774Y2559D02*
X2766Y2575D01*
X2782D01*
X2774Y2559D01*
Y2976D02*
X2766Y2992D01*
X2782D01*
X2774Y2976D01*
X3541Y3145D02*
X3545Y3149D01*
X3549D01*
X3545Y3153D01*
X3549Y3157D01*
X3545D01*
X3541Y3161D01*
X3537Y3157D01*
X3533D01*
X3537Y3153D01*
X3533Y3149D01*
X3537D01*
X3541Y3145D01*
X3494Y3475D02*
X3498Y3479D01*
X3502D01*
X3498Y3483D01*
X3502Y3487D01*
X3498D01*
X3494Y3491D01*
X3490Y3487D01*
X3486D01*
X3490Y3483D01*
X3486Y3479D01*
X3490D01*
X3494Y3475D01*
X2746Y3145D02*
X2750Y3149D01*
X2754D01*
X2750Y3153D01*
X2754Y3157D01*
X2750D01*
X2746Y3161D01*
X2742Y3157D01*
X2738D01*
X2742Y3153D01*
X2738Y3149D01*
X2742D01*
X2746Y3145D01*
X2793Y3475D02*
X2797Y3479D01*
X2801D01*
X2797Y3483D01*
X2801Y3487D01*
X2797D01*
X2793Y3491D01*
X2789Y3487D01*
X2785D01*
X2789Y3483D01*
X2785Y3479D01*
X2789D01*
X2793Y3475D01*
X3696Y3379D02*
X3700Y3387D01*
X3696Y3395D01*
X3704Y3391D01*
X3712Y3395D01*
X3708Y3387D01*
X3712Y3379D01*
X3704Y3383D01*
X3696Y3379D01*
X2575Y3241D02*
X2579Y3249D01*
X2575Y3257D01*
X2583Y3253D01*
X2591Y3257D01*
X2587Y3249D01*
X2591Y3241D01*
X2583Y3245D01*
X2575Y3241D01*
Y3379D02*
X2579Y3387D01*
X2575Y3395D01*
X2583Y3391D01*
X2591Y3395D01*
X2587Y3387D01*
X2591Y3379D01*
X2583Y3383D01*
X2575Y3379D01*
X2311Y2900D02*
Y2916D01*
X2327D01*
Y2900D01*
X2311D01*
Y2751D02*
Y2767D01*
X2327D01*
Y2751D01*
X2311D01*
Y2452D02*
Y2468D01*
X2327D01*
Y2452D01*
X2311D01*
Y2302D02*
Y2318D01*
X2327D01*
Y2302D01*
X2311D01*
X3431Y2990D02*
Y2986D01*
X3439D01*
Y2990D01*
X3443D01*
Y2998D01*
X3439D01*
Y3002D01*
X3431D01*
Y2998D01*
X3427D01*
Y2990D01*
X3431D01*
Y2549D02*
Y2545D01*
X3439D01*
Y2549D01*
X3443D01*
Y2557D01*
X3439D01*
Y2561D01*
X3431D01*
Y2557D01*
X3427D01*
Y2549D01*
X3431D01*
X3151Y2864D02*
X3155Y2872D01*
X3151Y2880D01*
X3159Y2876D01*
X3167Y2880D01*
X3163Y2872D01*
X3167Y2864D01*
X3159Y2868D01*
X3151Y2864D01*
Y2667D02*
X3155Y2675D01*
X3151Y2683D01*
X3159Y2679D01*
X3167Y2683D01*
X3163Y2675D01*
X3167Y2667D01*
X3159Y2671D01*
X3151Y2667D01*
X3722Y2864D02*
X3726Y2872D01*
X3722Y2880D01*
X3730Y2876D01*
X3738Y2880D01*
X3734Y2872D01*
X3738Y2864D01*
X3730Y2868D01*
X3722Y2864D01*
Y2766D02*
X3726Y2774D01*
X3722Y2782D01*
X3730Y2778D01*
X3738Y2782D01*
X3734Y2774D01*
X3738Y2766D01*
X3730Y2770D01*
X3722Y2766D01*
Y2667D02*
X3726Y2675D01*
X3722Y2683D01*
X3730Y2679D01*
X3738Y2683D01*
X3734Y2675D01*
X3738Y2667D01*
X3730Y2671D01*
X3722Y2667D01*
X4588Y2198D02*
X4592D01*
X4596Y2202D01*
X4600Y2198D01*
X4604D01*
Y2202D01*
X4600Y2206D01*
X4604Y2210D01*
Y2214D01*
X4600D01*
X4596Y2210D01*
X4592Y2214D01*
X4588D01*
Y2210D01*
X4592Y2206D01*
X4588Y2202D01*
Y2198D01*
X4488Y2198D02*
X4492D01*
X4496Y2202D01*
X4500Y2198D01*
X4504D01*
Y2202D01*
X4500Y2206D01*
X4504Y2210D01*
Y2214D01*
X4500D01*
X4496Y2210D01*
X4492Y2214D01*
X4488D01*
Y2210D01*
X4492Y2206D01*
X4488Y2202D01*
Y2198D01*
X4588Y2298D02*
X4592D01*
X4596Y2302D01*
X4600Y2298D01*
X4604D01*
Y2302D01*
X4600Y2306D01*
X4604Y2310D01*
Y2314D01*
X4600D01*
X4596Y2310D01*
X4592Y2314D01*
X4588D01*
Y2310D01*
X4592Y2306D01*
X4588Y2302D01*
Y2298D01*
X4488Y2298D02*
X4492D01*
X4496Y2302D01*
X4500Y2298D01*
X4504D01*
Y2302D01*
X4500Y2306D01*
X4504Y2310D01*
Y2314D01*
X4500D01*
X4496Y2310D01*
X4492Y2314D01*
X4488D01*
Y2310D01*
X4492Y2306D01*
X4488Y2302D01*
Y2298D01*
X4588Y2398D02*
X4592D01*
X4596Y2402D01*
X4600Y2398D01*
X4604D01*
Y2402D01*
X4600Y2406D01*
X4604Y2410D01*
Y2414D01*
X4600D01*
X4596Y2410D01*
X4592Y2414D01*
X4588D01*
Y2410D01*
X4592Y2406D01*
X4588Y2402D01*
Y2398D01*
X4488Y2399D02*
X4492D01*
X4496Y2403D01*
X4500Y2399D01*
X4504D01*
Y2403D01*
X4500Y2407D01*
X4504Y2411D01*
Y2415D01*
X4500D01*
X4496Y2411D01*
X4492Y2415D01*
X4488D01*
Y2411D01*
X4492Y2407D01*
X4488Y2403D01*
Y2399D01*
X4588Y2498D02*
X4592D01*
X4596Y2502D01*
X4600Y2498D01*
X4604D01*
Y2502D01*
X4600Y2506D01*
X4604Y2510D01*
Y2514D01*
X4600D01*
X4596Y2510D01*
X4592Y2514D01*
X4588D01*
Y2510D01*
X4592Y2506D01*
X4588Y2502D01*
Y2498D01*
X4488Y2499D02*
X4492D01*
X4496Y2503D01*
X4500Y2499D01*
X4504D01*
Y2503D01*
X4500Y2507D01*
X4504Y2511D01*
Y2515D01*
X4500D01*
X4496Y2511D01*
X4492Y2515D01*
X4488D01*
Y2511D01*
X4492Y2507D01*
X4488Y2503D01*
Y2499D01*
X4588Y2598D02*
X4592D01*
X4596Y2602D01*
X4600Y2598D01*
X4604D01*
Y2602D01*
X4600Y2606D01*
X4604Y2610D01*
Y2614D01*
X4600D01*
X4596Y2610D01*
X4592Y2614D01*
X4588D01*
Y2610D01*
X4592Y2606D01*
X4588Y2602D01*
Y2598D01*
X4488Y2599D02*
X4492D01*
X4496Y2603D01*
X4500Y2599D01*
X4504D01*
Y2603D01*
X4500Y2607D01*
X4504Y2611D01*
Y2615D01*
X4500D01*
X4496Y2611D01*
X4492Y2615D01*
X4488D01*
Y2611D01*
X4492Y2607D01*
X4488Y2603D01*
Y2599D01*
X4588Y2698D02*
X4592D01*
X4596Y2702D01*
X4600Y2698D01*
X4604D01*
Y2702D01*
X4600Y2706D01*
X4604Y2710D01*
Y2714D01*
X4600D01*
X4596Y2710D01*
X4592Y2714D01*
X4588D01*
Y2710D01*
X4592Y2706D01*
X4588Y2702D01*
Y2698D01*
X4488Y2699D02*
X4492D01*
X4496Y2703D01*
X4500Y2699D01*
X4504D01*
Y2703D01*
X4500Y2707D01*
X4504Y2711D01*
Y2715D01*
X4500D01*
X4496Y2711D01*
X4492Y2715D01*
X4488D01*
Y2711D01*
X4492Y2707D01*
X4488Y2703D01*
Y2699D01*
X4588Y2798D02*
X4592D01*
X4596Y2802D01*
X4600Y2798D01*
X4604D01*
Y2802D01*
X4600Y2806D01*
X4604Y2810D01*
Y2814D01*
X4600D01*
X4596Y2810D01*
X4592Y2814D01*
X4588D01*
Y2810D01*
X4592Y2806D01*
X4588Y2802D01*
Y2798D01*
X4488Y2799D02*
X4492D01*
X4496Y2803D01*
X4500Y2799D01*
X4504D01*
Y2803D01*
X4500Y2807D01*
X4504Y2811D01*
Y2815D01*
X4500D01*
X4496Y2811D01*
X4492Y2815D01*
X4488D01*
Y2811D01*
X4492Y2807D01*
X4488Y2803D01*
Y2799D01*
X4588Y2898D02*
X4592D01*
X4596Y2902D01*
X4600Y2898D01*
X4604D01*
Y2902D01*
X4600Y2906D01*
X4604Y2910D01*
Y2914D01*
X4600D01*
X4596Y2910D01*
X4592Y2914D01*
X4588D01*
Y2910D01*
X4592Y2906D01*
X4588Y2902D01*
Y2898D01*
X4488Y2899D02*
X4492D01*
X4496Y2903D01*
X4500Y2899D01*
X4504D01*
Y2903D01*
X4500Y2907D01*
X4504Y2911D01*
Y2915D01*
X4500D01*
X4496Y2911D01*
X4492Y2915D01*
X4488D01*
Y2911D01*
X4492Y2907D01*
X4488Y2903D01*
Y2899D01*
X4588Y2998D02*
X4592D01*
X4596Y3002D01*
X4600Y2998D01*
X4604D01*
Y3002D01*
X4600Y3006D01*
X4604Y3010D01*
Y3014D01*
X4600D01*
X4596Y3010D01*
X4592Y3014D01*
X4588D01*
Y3010D01*
X4592Y3006D01*
X4588Y3002D01*
Y2998D01*
X4488Y2999D02*
X4492D01*
X4496Y3003D01*
X4500Y2999D01*
X4504D01*
Y3003D01*
X4500Y3007D01*
X4504Y3011D01*
Y3015D01*
X4500D01*
X4496Y3011D01*
X4492Y3015D01*
X4488D01*
Y3011D01*
X4492Y3007D01*
X4488Y3003D01*
Y2999D01*
X4588Y3098D02*
X4592D01*
X4596Y3102D01*
X4600Y3098D01*
X4604D01*
Y3102D01*
X4600Y3106D01*
X4604Y3110D01*
Y3114D01*
X4600D01*
X4596Y3110D01*
X4592Y3114D01*
X4588D01*
Y3110D01*
X4592Y3106D01*
X4588Y3102D01*
Y3098D01*
X4488Y3100D02*
X4492D01*
X4496Y3104D01*
X4500Y3100D01*
X4504D01*
Y3104D01*
X4500Y3108D01*
X4504Y3112D01*
Y3116D01*
X4500D01*
X4496Y3112D01*
X4492Y3116D01*
X4488D01*
Y3112D01*
X4492Y3108D01*
X4488Y3104D01*
Y3100D01*
X4588Y3198D02*
X4592D01*
X4596Y3202D01*
X4600Y3198D01*
X4604D01*
Y3202D01*
X4600Y3206D01*
X4604Y3210D01*
Y3214D01*
X4600D01*
X4596Y3210D01*
X4592Y3214D01*
X4588D01*
Y3210D01*
X4592Y3206D01*
X4588Y3202D01*
Y3198D01*
X4488Y3200D02*
X4492D01*
X4496Y3204D01*
X4500Y3200D01*
X4504D01*
Y3204D01*
X4500Y3208D01*
X4504Y3212D01*
Y3216D01*
X4500D01*
X4496Y3212D01*
X4492Y3216D01*
X4488D01*
Y3212D01*
X4492Y3208D01*
X4488Y3204D01*
Y3200D01*
X4588Y3298D02*
X4592D01*
X4596Y3302D01*
X4600Y3298D01*
X4604D01*
Y3302D01*
X4600Y3306D01*
X4604Y3310D01*
Y3314D01*
X4600D01*
X4596Y3310D01*
X4592Y3314D01*
X4588D01*
Y3310D01*
X4592Y3306D01*
X4588Y3302D01*
Y3298D01*
X4488Y3300D02*
X4492D01*
X4496Y3304D01*
X4500Y3300D01*
X4504D01*
Y3304D01*
X4500Y3308D01*
X4504Y3312D01*
Y3316D01*
X4500D01*
X4496Y3312D01*
X4492Y3316D01*
X4488D01*
Y3312D01*
X4492Y3308D01*
X4488Y3304D01*
Y3300D01*
X4588Y3398D02*
X4592D01*
X4596Y3402D01*
X4600Y3398D01*
X4604D01*
Y3402D01*
X4600Y3406D01*
X4604Y3410D01*
Y3414D01*
X4600D01*
X4596Y3410D01*
X4592Y3414D01*
X4588D01*
Y3410D01*
X4592Y3406D01*
X4588Y3402D01*
Y3398D01*
X4488Y3400D02*
X4492D01*
X4496Y3404D01*
X4500Y3400D01*
X4504D01*
Y3404D01*
X4500Y3408D01*
X4504Y3412D01*
Y3416D01*
X4500D01*
X4496Y3412D01*
X4492Y3416D01*
X4488D01*
Y3412D01*
X4492Y3408D01*
X4488Y3404D01*
Y3400D01*
X4588Y3498D02*
X4592D01*
X4596Y3502D01*
X4600Y3498D01*
X4604D01*
Y3502D01*
X4600Y3506D01*
X4604Y3510D01*
Y3514D01*
X4600D01*
X4596Y3510D01*
X4592Y3514D01*
X4588D01*
Y3510D01*
X4592Y3506D01*
X4588Y3502D01*
Y3498D01*
X4488Y3500D02*
X4492D01*
X4496Y3504D01*
X4500Y3500D01*
X4504D01*
Y3504D01*
X4500Y3508D01*
X4504Y3512D01*
Y3516D01*
X4500D01*
X4496Y3512D01*
X4492Y3516D01*
X4488D01*
Y3512D01*
X4492Y3508D01*
X4488Y3504D01*
Y3500D01*
X4588Y3598D02*
X4592D01*
X4596Y3602D01*
X4600Y3598D01*
X4604D01*
Y3602D01*
X4600Y3606D01*
X4604Y3610D01*
Y3614D01*
X4600D01*
X4596Y3610D01*
X4592Y3614D01*
X4588D01*
Y3610D01*
X4592Y3606D01*
X4588Y3602D01*
Y3598D01*
X4488Y3600D02*
X4492D01*
X4496Y3604D01*
X4500Y3600D01*
X4504D01*
Y3604D01*
X4500Y3608D01*
X4504Y3612D01*
Y3616D01*
X4500D01*
X4496Y3612D01*
X4492Y3616D01*
X4488D01*
Y3612D01*
X4492Y3608D01*
X4488Y3604D01*
Y3600D01*
X4588Y3698D02*
X4592D01*
X4596Y3702D01*
X4600Y3698D01*
X4604D01*
Y3702D01*
X4600Y3706D01*
X4604Y3710D01*
Y3714D01*
X4600D01*
X4596Y3710D01*
X4592Y3714D01*
X4588D01*
Y3710D01*
X4592Y3706D01*
X4588Y3702D01*
Y3698D01*
X4488Y3700D02*
X4492D01*
X4496Y3704D01*
X4500Y3700D01*
X4504D01*
Y3704D01*
X4500Y3708D01*
X4504Y3712D01*
Y3716D01*
X4500D01*
X4496Y3712D01*
X4492Y3716D01*
X4488D01*
Y3712D01*
X4492Y3708D01*
X4488Y3704D01*
Y3700D01*
X4588Y3798D02*
X4592D01*
X4596Y3802D01*
X4600Y3798D01*
X4604D01*
Y3802D01*
X4600Y3806D01*
X4604Y3810D01*
Y3814D01*
X4600D01*
X4596Y3810D01*
X4592Y3814D01*
X4588D01*
Y3810D01*
X4592Y3806D01*
X4588Y3802D01*
Y3798D01*
X4488Y3801D02*
X4492D01*
X4496Y3805D01*
X4500Y3801D01*
X4504D01*
Y3805D01*
X4500Y3809D01*
X4504Y3813D01*
Y3817D01*
X4500D01*
X4496Y3813D01*
X4492Y3817D01*
X4488D01*
Y3813D01*
X4492Y3809D01*
X4488Y3805D01*
Y3801D01*
X4588Y3898D02*
X4592D01*
X4596Y3902D01*
X4600Y3898D01*
X4604D01*
Y3902D01*
X4600Y3906D01*
X4604Y3910D01*
Y3914D01*
X4600D01*
X4596Y3910D01*
X4592Y3914D01*
X4588D01*
Y3910D01*
X4592Y3906D01*
X4588Y3902D01*
Y3898D01*
X4488Y3901D02*
X4492D01*
X4496Y3905D01*
X4500Y3901D01*
X4504D01*
Y3905D01*
X4500Y3909D01*
X4504Y3913D01*
Y3917D01*
X4500D01*
X4496Y3913D01*
X4492Y3917D01*
X4488D01*
Y3913D01*
X4492Y3909D01*
X4488Y3905D01*
Y3901D01*
X4588Y3998D02*
X4592D01*
X4596Y4002D01*
X4600Y3998D01*
X4604D01*
Y4002D01*
X4600Y4006D01*
X4604Y4010D01*
Y4014D01*
X4600D01*
X4596Y4010D01*
X4592Y4014D01*
X4588D01*
Y4010D01*
X4592Y4006D01*
X4588Y4002D01*
Y3998D01*
X4488Y4001D02*
X4492D01*
X4496Y4005D01*
X4500Y4001D01*
X4504D01*
Y4005D01*
X4500Y4009D01*
X4504Y4013D01*
Y4017D01*
X4500D01*
X4496Y4013D01*
X4492Y4017D01*
X4488D01*
Y4013D01*
X4492Y4009D01*
X4488Y4005D01*
Y4001D01*
X4588Y4098D02*
X4592D01*
X4596Y4102D01*
X4600Y4098D01*
X4604D01*
Y4102D01*
X4600Y4106D01*
X4604Y4110D01*
Y4114D01*
X4600D01*
X4596Y4110D01*
X4592Y4114D01*
X4588D01*
Y4110D01*
X4592Y4106D01*
X4588Y4102D01*
Y4098D01*
X4488D02*
X4492D01*
X4496Y4102D01*
X4500Y4098D01*
X4504D01*
Y4102D01*
X4500Y4106D01*
X4504Y4110D01*
Y4114D01*
X4500D01*
X4496Y4110D01*
X4492Y4114D01*
X4488D01*
Y4110D01*
X4492Y4106D01*
X4488Y4102D01*
Y4098D01*
X2188Y2198D02*
X2192D01*
X2196Y2202D01*
X2200Y2198D01*
X2204D01*
Y2202D01*
X2200Y2206D01*
X2204Y2210D01*
Y2214D01*
X2200D01*
X2196Y2210D01*
X2192Y2214D01*
X2188D01*
Y2210D01*
X2192Y2206D01*
X2188Y2202D01*
Y2198D01*
X2088Y2198D02*
X2092D01*
X2096Y2202D01*
X2100Y2198D01*
X2104D01*
Y2202D01*
X2100Y2206D01*
X2104Y2210D01*
Y2214D01*
X2100D01*
X2096Y2210D01*
X2092Y2214D01*
X2088D01*
Y2210D01*
X2092Y2206D01*
X2088Y2202D01*
Y2198D01*
X2188Y2298D02*
X2192D01*
X2196Y2302D01*
X2200Y2298D01*
X2204D01*
Y2302D01*
X2200Y2306D01*
X2204Y2310D01*
Y2314D01*
X2200D01*
X2196Y2310D01*
X2192Y2314D01*
X2188D01*
Y2310D01*
X2192Y2306D01*
X2188Y2302D01*
Y2298D01*
X2088Y2298D02*
X2092D01*
X2096Y2302D01*
X2100Y2298D01*
X2104D01*
Y2302D01*
X2100Y2306D01*
X2104Y2310D01*
Y2314D01*
X2100D01*
X2096Y2310D01*
X2092Y2314D01*
X2088D01*
Y2310D01*
X2092Y2306D01*
X2088Y2302D01*
Y2298D01*
X2188Y2398D02*
X2192D01*
X2196Y2402D01*
X2200Y2398D01*
X2204D01*
Y2402D01*
X2200Y2406D01*
X2204Y2410D01*
Y2414D01*
X2200D01*
X2196Y2410D01*
X2192Y2414D01*
X2188D01*
Y2410D01*
X2192Y2406D01*
X2188Y2402D01*
Y2398D01*
X2088Y2399D02*
X2092D01*
X2096Y2403D01*
X2100Y2399D01*
X2104D01*
Y2403D01*
X2100Y2407D01*
X2104Y2411D01*
Y2415D01*
X2100D01*
X2096Y2411D01*
X2092Y2415D01*
X2088D01*
Y2411D01*
X2092Y2407D01*
X2088Y2403D01*
Y2399D01*
X2188Y2498D02*
X2192D01*
X2196Y2502D01*
X2200Y2498D01*
X2204D01*
Y2502D01*
X2200Y2506D01*
X2204Y2510D01*
Y2514D01*
X2200D01*
X2196Y2510D01*
X2192Y2514D01*
X2188D01*
Y2510D01*
X2192Y2506D01*
X2188Y2502D01*
Y2498D01*
X2088Y2499D02*
X2092D01*
X2096Y2503D01*
X2100Y2499D01*
X2104D01*
Y2503D01*
X2100Y2507D01*
X2104Y2511D01*
Y2515D01*
X2100D01*
X2096Y2511D01*
X2092Y2515D01*
X2088D01*
Y2511D01*
X2092Y2507D01*
X2088Y2503D01*
Y2499D01*
X2188Y2598D02*
X2192D01*
X2196Y2602D01*
X2200Y2598D01*
X2204D01*
Y2602D01*
X2200Y2606D01*
X2204Y2610D01*
Y2614D01*
X2200D01*
X2196Y2610D01*
X2192Y2614D01*
X2188D01*
Y2610D01*
X2192Y2606D01*
X2188Y2602D01*
Y2598D01*
X2088Y2599D02*
X2092D01*
X2096Y2603D01*
X2100Y2599D01*
X2104D01*
Y2603D01*
X2100Y2607D01*
X2104Y2611D01*
Y2615D01*
X2100D01*
X2096Y2611D01*
X2092Y2615D01*
X2088D01*
Y2611D01*
X2092Y2607D01*
X2088Y2603D01*
Y2599D01*
X2188Y2698D02*
X2192D01*
X2196Y2702D01*
X2200Y2698D01*
X2204D01*
Y2702D01*
X2200Y2706D01*
X2204Y2710D01*
Y2714D01*
X2200D01*
X2196Y2710D01*
X2192Y2714D01*
X2188D01*
Y2710D01*
X2192Y2706D01*
X2188Y2702D01*
Y2698D01*
X2088Y2699D02*
X2092D01*
X2096Y2703D01*
X2100Y2699D01*
X2104D01*
Y2703D01*
X2100Y2707D01*
X2104Y2711D01*
Y2715D01*
X2100D01*
X2096Y2711D01*
X2092Y2715D01*
X2088D01*
Y2711D01*
X2092Y2707D01*
X2088Y2703D01*
Y2699D01*
X2188Y2798D02*
X2192D01*
X2196Y2802D01*
X2200Y2798D01*
X2204D01*
Y2802D01*
X2200Y2806D01*
X2204Y2810D01*
Y2814D01*
X2200D01*
X2196Y2810D01*
X2192Y2814D01*
X2188D01*
Y2810D01*
X2192Y2806D01*
X2188Y2802D01*
Y2798D01*
X2088Y2799D02*
X2092D01*
X2096Y2803D01*
X2100Y2799D01*
X2104D01*
Y2803D01*
X2100Y2807D01*
X2104Y2811D01*
Y2815D01*
X2100D01*
X2096Y2811D01*
X2092Y2815D01*
X2088D01*
Y2811D01*
X2092Y2807D01*
X2088Y2803D01*
Y2799D01*
X2188Y2898D02*
X2192D01*
X2196Y2902D01*
X2200Y2898D01*
X2204D01*
Y2902D01*
X2200Y2906D01*
X2204Y2910D01*
Y2914D01*
X2200D01*
X2196Y2910D01*
X2192Y2914D01*
X2188D01*
Y2910D01*
X2192Y2906D01*
X2188Y2902D01*
Y2898D01*
X2088Y2899D02*
X2092D01*
X2096Y2903D01*
X2100Y2899D01*
X2104D01*
Y2903D01*
X2100Y2907D01*
X2104Y2911D01*
Y2915D01*
X2100D01*
X2096Y2911D01*
X2092Y2915D01*
X2088D01*
Y2911D01*
X2092Y2907D01*
X2088Y2903D01*
Y2899D01*
X2188Y2998D02*
X2192D01*
X2196Y3002D01*
X2200Y2998D01*
X2204D01*
Y3002D01*
X2200Y3006D01*
X2204Y3010D01*
Y3014D01*
X2200D01*
X2196Y3010D01*
X2192Y3014D01*
X2188D01*
Y3010D01*
X2192Y3006D01*
X2188Y3002D01*
Y2998D01*
X2088Y2999D02*
X2092D01*
X2096Y3003D01*
X2100Y2999D01*
X2104D01*
Y3003D01*
X2100Y3007D01*
X2104Y3011D01*
Y3015D01*
X2100D01*
X2096Y3011D01*
X2092Y3015D01*
X2088D01*
Y3011D01*
X2092Y3007D01*
X2088Y3003D01*
Y2999D01*
X2188Y3098D02*
X2192D01*
X2196Y3102D01*
X2200Y3098D01*
X2204D01*
Y3102D01*
X2200Y3106D01*
X2204Y3110D01*
Y3114D01*
X2200D01*
X2196Y3110D01*
X2192Y3114D01*
X2188D01*
Y3110D01*
X2192Y3106D01*
X2188Y3102D01*
Y3098D01*
X2088Y3100D02*
X2092D01*
X2096Y3104D01*
X2100Y3100D01*
X2104D01*
Y3104D01*
X2100Y3108D01*
X2104Y3112D01*
Y3116D01*
X2100D01*
X2096Y3112D01*
X2092Y3116D01*
X2088D01*
Y3112D01*
X2092Y3108D01*
X2088Y3104D01*
Y3100D01*
X2188Y3198D02*
X2192D01*
X2196Y3202D01*
X2200Y3198D01*
X2204D01*
Y3202D01*
X2200Y3206D01*
X2204Y3210D01*
Y3214D01*
X2200D01*
X2196Y3210D01*
X2192Y3214D01*
X2188D01*
Y3210D01*
X2192Y3206D01*
X2188Y3202D01*
Y3198D01*
X2088Y3200D02*
X2092D01*
X2096Y3204D01*
X2100Y3200D01*
X2104D01*
Y3204D01*
X2100Y3208D01*
X2104Y3212D01*
Y3216D01*
X2100D01*
X2096Y3212D01*
X2092Y3216D01*
X2088D01*
Y3212D01*
X2092Y3208D01*
X2088Y3204D01*
Y3200D01*
X2188Y3298D02*
X2192D01*
X2196Y3302D01*
X2200Y3298D01*
X2204D01*
Y3302D01*
X2200Y3306D01*
X2204Y3310D01*
Y3314D01*
X2200D01*
X2196Y3310D01*
X2192Y3314D01*
X2188D01*
Y3310D01*
X2192Y3306D01*
X2188Y3302D01*
Y3298D01*
X2088Y3300D02*
X2092D01*
X2096Y3304D01*
X2100Y3300D01*
X2104D01*
Y3304D01*
X2100Y3308D01*
X2104Y3312D01*
Y3316D01*
X2100D01*
X2096Y3312D01*
X2092Y3316D01*
X2088D01*
Y3312D01*
X2092Y3308D01*
X2088Y3304D01*
Y3300D01*
X2188Y3398D02*
X2192D01*
X2196Y3402D01*
X2200Y3398D01*
X2204D01*
Y3402D01*
X2200Y3406D01*
X2204Y3410D01*
Y3414D01*
X2200D01*
X2196Y3410D01*
X2192Y3414D01*
X2188D01*
Y3410D01*
X2192Y3406D01*
X2188Y3402D01*
Y3398D01*
X2088Y3400D02*
X2092D01*
X2096Y3404D01*
X2100Y3400D01*
X2104D01*
Y3404D01*
X2100Y3408D01*
X2104Y3412D01*
Y3416D01*
X2100D01*
X2096Y3412D01*
X2092Y3416D01*
X2088D01*
Y3412D01*
X2092Y3408D01*
X2088Y3404D01*
Y3400D01*
X2188Y3498D02*
X2192D01*
X2196Y3502D01*
X2200Y3498D01*
X2204D01*
Y3502D01*
X2200Y3506D01*
X2204Y3510D01*
Y3514D01*
X2200D01*
X2196Y3510D01*
X2192Y3514D01*
X2188D01*
Y3510D01*
X2192Y3506D01*
X2188Y3502D01*
Y3498D01*
X2088Y3500D02*
X2092D01*
X2096Y3504D01*
X2100Y3500D01*
X2104D01*
Y3504D01*
X2100Y3508D01*
X2104Y3512D01*
Y3516D01*
X2100D01*
X2096Y3512D01*
X2092Y3516D01*
X2088D01*
Y3512D01*
X2092Y3508D01*
X2088Y3504D01*
Y3500D01*
X2188Y3598D02*
X2192D01*
X2196Y3602D01*
X2200Y3598D01*
X2204D01*
Y3602D01*
X2200Y3606D01*
X2204Y3610D01*
Y3614D01*
X2200D01*
X2196Y3610D01*
X2192Y3614D01*
X2188D01*
Y3610D01*
X2192Y3606D01*
X2188Y3602D01*
Y3598D01*
X2088Y3600D02*
X2092D01*
X2096Y3604D01*
X2100Y3600D01*
X2104D01*
Y3604D01*
X2100Y3608D01*
X2104Y3612D01*
Y3616D01*
X2100D01*
X2096Y3612D01*
X2092Y3616D01*
X2088D01*
Y3612D01*
X2092Y3608D01*
X2088Y3604D01*
Y3600D01*
X2188Y3698D02*
X2192D01*
X2196Y3702D01*
X2200Y3698D01*
X2204D01*
Y3702D01*
X2200Y3706D01*
X2204Y3710D01*
Y3714D01*
X2200D01*
X2196Y3710D01*
X2192Y3714D01*
X2188D01*
Y3710D01*
X2192Y3706D01*
X2188Y3702D01*
Y3698D01*
X2088Y3700D02*
X2092D01*
X2096Y3704D01*
X2100Y3700D01*
X2104D01*
Y3704D01*
X2100Y3708D01*
X2104Y3712D01*
Y3716D01*
X2100D01*
X2096Y3712D01*
X2092Y3716D01*
X2088D01*
Y3712D01*
X2092Y3708D01*
X2088Y3704D01*
Y3700D01*
X2188Y3798D02*
X2192D01*
X2196Y3802D01*
X2200Y3798D01*
X2204D01*
Y3802D01*
X2200Y3806D01*
X2204Y3810D01*
Y3814D01*
X2200D01*
X2196Y3810D01*
X2192Y3814D01*
X2188D01*
Y3810D01*
X2192Y3806D01*
X2188Y3802D01*
Y3798D01*
X2088Y3801D02*
X2092D01*
X2096Y3805D01*
X2100Y3801D01*
X2104D01*
Y3805D01*
X2100Y3809D01*
X2104Y3813D01*
Y3817D01*
X2100D01*
X2096Y3813D01*
X2092Y3817D01*
X2088D01*
Y3813D01*
X2092Y3809D01*
X2088Y3805D01*
Y3801D01*
X2188Y3898D02*
X2192D01*
X2196Y3902D01*
X2200Y3898D01*
X2204D01*
Y3902D01*
X2200Y3906D01*
X2204Y3910D01*
Y3914D01*
X2200D01*
X2196Y3910D01*
X2192Y3914D01*
X2188D01*
Y3910D01*
X2192Y3906D01*
X2188Y3902D01*
Y3898D01*
X2088Y3901D02*
X2092D01*
X2096Y3905D01*
X2100Y3901D01*
X2104D01*
Y3905D01*
X2100Y3909D01*
X2104Y3913D01*
Y3917D01*
X2100D01*
X2096Y3913D01*
X2092Y3917D01*
X2088D01*
Y3913D01*
X2092Y3909D01*
X2088Y3905D01*
Y3901D01*
X2188Y3998D02*
X2192D01*
X2196Y4002D01*
X2200Y3998D01*
X2204D01*
Y4002D01*
X2200Y4006D01*
X2204Y4010D01*
Y4014D01*
X2200D01*
X2196Y4010D01*
X2192Y4014D01*
X2188D01*
Y4010D01*
X2192Y4006D01*
X2188Y4002D01*
Y3998D01*
X2088Y4001D02*
X2092D01*
X2096Y4005D01*
X2100Y4001D01*
X2104D01*
Y4005D01*
X2100Y4009D01*
X2104Y4013D01*
Y4017D01*
X2100D01*
X2096Y4013D01*
X2092Y4017D01*
X2088D01*
Y4013D01*
X2092Y4009D01*
X2088Y4005D01*
Y4001D01*
X2188Y4098D02*
X2192D01*
X2196Y4102D01*
X2200Y4098D01*
X2204D01*
Y4102D01*
X2200Y4106D01*
X2204Y4110D01*
Y4114D01*
X2200D01*
X2196Y4110D01*
X2192Y4114D01*
X2188D01*
Y4110D01*
X2192Y4106D01*
X2188Y4102D01*
Y4098D01*
X2088D02*
X2092D01*
X2096Y4102D01*
X2100Y4098D01*
X2104D01*
Y4102D01*
X2100Y4106D01*
X2104Y4110D01*
Y4114D01*
X2100D01*
X2096Y4110D01*
X2092Y4114D01*
X2088D01*
Y4110D01*
X2092Y4106D01*
X2088Y4102D01*
Y4098D01*
X2315Y3936D02*
X2323Y3944D01*
X2331Y3936D01*
X2323Y3928D01*
X2315Y3936D01*
Y4133D02*
X2323Y4141D01*
X2331Y4133D01*
X2323Y4125D01*
X2315Y4133D01*
X2815Y3936D02*
X2823Y3944D01*
X2831Y3936D01*
X2823Y3928D01*
X2815Y3936D01*
Y4133D02*
X2823Y4141D01*
X2831Y4133D01*
X2823Y4125D01*
X2815Y4133D01*
X2565Y3928D02*
Y3944D01*
X2581D01*
Y3928D01*
X2565D01*
X2569Y3932D02*
Y3940D01*
X2577D01*
Y3932D01*
X2569D01*
X2565Y4125D02*
Y4141D01*
X2581D01*
Y4125D01*
X2565D01*
X2569Y4129D02*
Y4137D01*
X2577D01*
Y4129D01*
X2569D01*
X2663Y4027D02*
Y4043D01*
X2679D01*
Y4027D01*
X2663D01*
X2667Y4031D02*
Y4039D01*
X2675D01*
Y4031D01*
X2667D01*
X2466Y4027D02*
Y4043D01*
X2482D01*
Y4027D01*
X2466D01*
X2470Y4031D02*
Y4039D01*
X2478D01*
Y4031D01*
X2470D01*
X2565Y4027D02*
Y4043D01*
X2581D01*
Y4027D01*
X2565D01*
X2569Y4031D02*
Y4039D01*
X2577D01*
Y4031D01*
X2569D01*
X4284Y3698D02*
X4276Y3714D01*
X4292D01*
X4284Y3698D01*
Y3702D02*
X4280Y3710D01*
X4288D01*
X4284Y3702D01*
X3623Y3695D02*
X3615Y3711D01*
X3631D01*
X3623Y3695D01*
Y3699D02*
X3619Y3707D01*
X3627D01*
X3623Y3699D01*
X2911Y2677D02*
X2903Y2693D01*
X2919D01*
X2911Y2677D01*
Y2681D02*
X2907Y2689D01*
X2915D01*
X2911Y2681D01*
X2795Y2236D02*
X2787Y2252D01*
X2803D01*
X2795Y2236D01*
Y2240D02*
X2791Y2248D01*
X2799D01*
X2795Y2240D01*
X4089Y3042D02*
X4081Y3058D01*
X4097D01*
X4089Y3042D01*
Y3046D02*
X4085Y3054D01*
X4093D01*
X4089Y3046D01*
X4211Y2673D02*
X4203Y2689D01*
X4219D01*
X4211Y2673D01*
Y2677D02*
X4207Y2685D01*
X4215D01*
X4211Y2677D01*
X4426Y2677D02*
X4418Y2693D01*
X4434D01*
X4426Y2677D01*
Y2681D02*
X4422Y2689D01*
X4430D01*
X4426Y2681D01*
X4264Y3237D02*
X4256Y3253D01*
X4272D01*
X4264Y3237D01*
Y3241D02*
X4260Y3249D01*
X4268D01*
X4264Y3241D01*
X4199Y3239D02*
X4191Y3255D01*
X4207D01*
X4199Y3239D01*
Y3243D02*
X4195Y3251D01*
X4203D01*
X4199Y3243D01*
X4134Y3240D02*
X4126Y3256D01*
X4142D01*
X4134Y3240D01*
Y3244D02*
X4130Y3252D01*
X4138D01*
X4134Y3244D01*
X2882Y3617D02*
X2874Y3633D01*
X2890D01*
X2882Y3617D01*
Y3621D02*
X2878Y3629D01*
X2886D01*
X2882Y3621D01*
X3007Y3859D02*
X2999Y3875D01*
X3015D01*
X3007Y3859D01*
Y3863D02*
X3003Y3871D01*
X3011D01*
X3007Y3863D01*
X3129Y3855D02*
X3121Y3871D01*
X3137D01*
X3129Y3855D01*
Y3859D02*
X3125Y3867D01*
X3133D01*
X3129Y3859D01*
X2942Y3860D02*
X2934Y3876D01*
X2950D01*
X2942Y3860D01*
Y3864D02*
X2938Y3872D01*
X2946D01*
X2942Y3864D01*
X4113Y3696D02*
X4105Y3712D01*
X4121D01*
X4113Y3696D01*
Y3700D02*
X4109Y3708D01*
X4117D01*
X4113Y3700D01*
X3865Y3696D02*
X3857Y3712D01*
X3873D01*
X3865Y3696D01*
Y3700D02*
X3861Y3708D01*
X3869D01*
X3865Y3700D01*
X3209Y3718D02*
X3201Y3734D01*
X3217D01*
X3209Y3718D01*
Y3722D02*
X3205Y3730D01*
X3213D01*
X3209Y3722D01*
X3579Y3379D02*
X3571Y3395D01*
X3587D01*
X3579Y3379D01*
Y3383D02*
X3575Y3391D01*
X3583D01*
X3579Y3383D01*
X4184Y2945D02*
X4176Y2961D01*
X4192D01*
X4184Y2945D01*
Y2949D02*
X4180Y2957D01*
X4188D01*
X4184Y2949D01*
X4180Y3040D02*
X4172Y3056D01*
X4188D01*
X4180Y3040D01*
Y3044D02*
X4176Y3052D01*
X4184D01*
X4180Y3044D01*
D77*
X3057Y2874D02*
G03*
X3057Y2874I-8J0D01*
G01*
Y2776D02*
G03*
X3057Y2776I-8J0D01*
G01*
Y2677D02*
G03*
X3057Y2677I-8J0D01*
G01*
X2898Y2329D02*
G03*
X2898Y2329I-8J0D01*
G01*
Y2132D02*
G03*
X2898Y2132I-8J0D01*
G01*
X2701D02*
G03*
X2701Y2132I-8J0D01*
G01*
Y2329D02*
G03*
X2701Y2329I-8J0D01*
G01*
X3462D02*
G03*
X3462Y2329I-8J0D01*
G01*
Y2132D02*
G03*
X3462Y2132I-8J0D01*
G01*
X3265D02*
G03*
X3265Y2132I-8J0D01*
G01*
Y2329D02*
G03*
X3265Y2329I-8J0D01*
G01*
D78*
X2894D02*
G03*
X2894Y2329I-4J0D01*
G01*
Y2132D02*
G03*
X2894Y2132I-4J0D01*
G01*
X2697D02*
G03*
X2697Y2132I-4J0D01*
G01*
Y2329D02*
G03*
X2697Y2329I-4J0D01*
G01*
X3458D02*
G03*
X3458Y2329I-4J0D01*
G01*
Y2132D02*
G03*
X3458Y2132I-4J0D01*
G01*
X3261D02*
G03*
X3261Y2132I-4J0D01*
G01*
Y2329D02*
G03*
X3261Y2329I-4J0D01*
G01*
M02*
