G04 Layer_Color=65535*
%FSLAX23Y23*%
%MOIN*%
G70*
G01*
G75*
%ADD27C,0.010*%
%ADD40C,0.010*%
%ADD41C,0.024*%
%ADD42C,0.002*%
%ADD43C,0.008*%
%ADD44C,0.030*%
%ADD45C,0.006*%
%ADD46C,0.006*%
%ADD47C,0.006*%
%ADD48C,0.003*%
D27*
X2366Y2609D02*
G03*
X2366Y2609I-47J0D01*
G01*
X4348Y2721D02*
G03*
X4348Y2721I-5J0D01*
G01*
X2366Y2908D02*
G03*
X2366Y2908I-47J0D01*
G01*
Y2759D02*
G03*
X2366Y2759I-47J0D01*
G01*
Y2460D02*
G03*
X2366Y2460I-47J0D01*
G01*
Y2310D02*
G03*
X2366Y2310I-47J0D01*
G01*
X2961Y2061D02*
G03*
X2622Y2061I-169J169D01*
G01*
X3525D02*
G03*
X3186Y2061I-169J169D01*
G01*
X4189Y3290D02*
G03*
X4189Y3290I-4J0D01*
G01*
X4304Y3518D02*
Y3552D01*
Y3544D02*
Y3552D01*
Y3518D02*
X4336D01*
X4364Y2524D02*
X4396D01*
Y2489D02*
Y2524D01*
X4388Y2551D02*
Y2701D01*
X4238Y2551D02*
X4388D01*
X4238D02*
Y2701D01*
X4388D01*
X2826Y3936D02*
Y4300D01*
X2319Y3936D02*
X2826D01*
X2323D02*
Y4300D01*
X4281Y3749D02*
Y3860D01*
X4228Y3749D02*
Y3860D01*
X4046Y3748D02*
Y3860D01*
X3992Y3749D02*
Y3860D01*
X3802Y3749D02*
Y3860D01*
X3749Y3750D02*
Y3861D01*
X3501Y3750D02*
Y3861D01*
X3554Y3749D02*
Y3860D01*
X2622Y2061D02*
X2961D01*
X3186D02*
X3525D01*
X4176Y3310D02*
X4178Y3308D01*
X4176Y3310D02*
Y3475D01*
X4178Y3308D02*
X4183D01*
X4176Y3475D02*
X4336D01*
X4337Y3474D01*
Y3308D02*
Y3474D01*
X4183Y3308D02*
X4337D01*
D40*
X3049Y3697D02*
G03*
X3049Y3697I-5J0D01*
G01*
X3137Y3825D02*
G03*
X3137Y3825I-5J0D01*
G01*
X3237Y3964D02*
G03*
X3237Y3964I-5J0D01*
G01*
X4129Y2147D02*
G03*
X4129Y2147I-5J0D01*
G01*
X4423Y4011D02*
G03*
X4423Y4011I-5J0D01*
G01*
X4187D02*
G03*
X4187Y4011I-5J0D01*
G01*
X3943D02*
G03*
X3943Y4011I-5J0D01*
G01*
X3695D02*
G03*
X3695Y4011I-5J0D01*
G01*
X4059Y2025D02*
G03*
X4059Y2025I-5J0D01*
G01*
X4316Y2502D02*
G03*
X4316Y2502I-5J0D01*
G01*
D41*
X3233Y3805D02*
G03*
X3233Y3805I-12J0D01*
G01*
X3158Y4017D02*
G03*
X3158Y4017I-12J0D01*
G01*
D42*
X3472Y4181D02*
X3482D01*
X3472Y4179D02*
X3482D01*
X3472Y4177D02*
X3482D01*
X3472Y4175D02*
X3482D01*
X3472Y4163D02*
X3482D01*
X3472Y4161D02*
X3482D01*
X3472Y4159D02*
X3482D01*
X3472Y4157D02*
X3482D01*
X3472Y4155D02*
X3482D01*
X3472Y4153D02*
X3482D01*
X3474Y4151D02*
X3482D01*
X3474Y4149D02*
X3482D01*
X3520Y4189D02*
X3536D01*
X3516Y4187D02*
X3540D01*
X3514Y4185D02*
X3544D01*
X3512Y4183D02*
X3546D01*
X3510Y4181D02*
X3524D01*
X3532D02*
X3546D01*
X3558D02*
X3568D01*
X3508Y4179D02*
X3520D01*
X3536D02*
X3548D01*
X3558D02*
X3568D01*
X3508Y4177D02*
X3518D01*
X3538D02*
X3548D01*
X3558D02*
X3568D01*
X3508Y4175D02*
X3518D01*
X3540D02*
X3550D01*
X3558D02*
X3568D01*
X3506Y4173D02*
X3516D01*
X3540D02*
X3550D01*
X3558D02*
X3568D01*
X3506Y4171D02*
X3516D01*
X3540D02*
X3550D01*
X3558D02*
X3568D01*
X3506Y4169D02*
X3516D01*
X3540D02*
X3550D01*
X3506Y4167D02*
X3516D01*
X3540D02*
X3550D01*
X3506Y4165D02*
X3516D01*
X3540D02*
X3550D01*
X3508Y4163D02*
X3518D01*
X3540D02*
X3550D01*
X3508Y4161D02*
X3520D01*
X3538D02*
X3548D01*
X3510Y4159D02*
X3522D01*
X3536D02*
X3548D01*
X3558D02*
X3568D01*
X3510Y4157D02*
X3526D01*
X3530D02*
X3546D01*
X3558D02*
X3568D01*
X3512Y4155D02*
X3544D01*
X3558D02*
X3568D01*
X3514Y4153D02*
X3542D01*
X3558D02*
X3568D01*
X3518Y4151D02*
X3540D01*
X3558D02*
X3568D01*
X3522Y4149D02*
X3534D01*
X3560D02*
X3566D01*
X3516Y4275D02*
X3538D01*
X3516Y4273D02*
X3538D01*
X3516Y4271D02*
X3538D01*
X3516Y4269D02*
X3540D01*
X3514Y4267D02*
X3540D01*
X3514Y4265D02*
X3540D01*
X3514Y4263D02*
X3540D01*
X3514Y4261D02*
X3542D01*
X3512Y4259D02*
X3542D01*
X3512Y4257D02*
X3542D01*
X3512Y4255D02*
X3542D01*
X3512Y4253D02*
X3544D01*
X3510Y4251D02*
X3526D01*
X3528D02*
X3544D01*
X3510Y4249D02*
X3526D01*
X3528D02*
X3544D01*
X3510Y4247D02*
X3526D01*
X3528D02*
X3544D01*
X3508Y4245D02*
X3524D01*
X3530D02*
X3546D01*
X3508Y4243D02*
X3524D01*
X3530D02*
X3546D01*
X3508Y4241D02*
X3524D01*
X3530D02*
X3546D01*
X3554D02*
X3570D01*
X3508Y4239D02*
X3522D01*
X3530D02*
X3546D01*
X3552D02*
X3570D01*
X3506Y4237D02*
X3522D01*
X3532D02*
X3548D01*
X3552D02*
X3570D01*
X3506Y4235D02*
X3522D01*
X3532D02*
X3548D01*
X3552D02*
X3568D01*
X3506Y4233D02*
X3522D01*
X3532D02*
X3548D01*
X3552D02*
X3568D01*
X3506Y4231D02*
X3520D01*
X3532D02*
X3568D01*
X3534Y4229D02*
X3566D01*
X3534Y4227D02*
X3566D01*
X3534Y4225D02*
X3566D01*
X3536Y4223D02*
X3564D01*
X3536Y4221D02*
X3564D01*
X3536Y4219D02*
X3564D01*
X3536Y4217D02*
X3562D01*
X3538Y4215D02*
X3562D01*
X3538Y4213D02*
X3562D01*
X3538Y4211D02*
X3560D01*
X3494Y4209D02*
X3514D01*
X3538D02*
X3560D01*
X3494Y4207D02*
X3514D01*
X3540D02*
X3558D01*
X3604Y4189D02*
X3614D01*
X3638D02*
X3646D01*
X3604Y4187D02*
X3616D01*
X3636D02*
X3648D01*
X3604Y4185D02*
X3616D01*
X3634D02*
X3648D01*
X3604Y4183D02*
X3618D01*
X3634D02*
X3648D01*
X3580Y4181D02*
X3592D01*
X3604D02*
X3618D01*
X3632D02*
X3648D01*
X3582Y4179D02*
X3592D01*
X3604D02*
X3618D01*
X3632D02*
X3648D01*
X3584Y4177D02*
X3592D01*
X3604D02*
X3620D01*
X3630D02*
X3648D01*
X3584Y4175D02*
X3592D01*
X3604D02*
X3622D01*
X3630D02*
X3648D01*
X3584Y4173D02*
X3592D01*
X3604D02*
X3622D01*
X3628D02*
X3648D01*
X3582Y4171D02*
X3592D01*
X3604D02*
X3612D01*
X3614D02*
X3624D01*
X3628D02*
X3648D01*
X3604Y4169D02*
X3612D01*
X3614D02*
X3624D01*
X3626D02*
X3636D01*
X3638D02*
X3648D01*
X3604Y4167D02*
X3612D01*
X3616D02*
X3636D01*
X3638D02*
X3648D01*
X3604Y4165D02*
X3612D01*
X3616D02*
X3634D01*
X3638D02*
X3648D01*
X3604Y4163D02*
X3612D01*
X3618D02*
X3634D01*
X3638D02*
X3648D01*
X3604Y4161D02*
X3612D01*
X3618D02*
X3632D01*
X3638D02*
X3648D01*
X3578Y4159D02*
X3588D01*
X3604D02*
X3612D01*
X3620D02*
X3632D01*
X3638D02*
X3648D01*
X3578Y4157D02*
X3588D01*
X3604D02*
X3612D01*
X3620D02*
X3630D01*
X3638D02*
X3648D01*
X3580Y4155D02*
X3590D01*
X3604D02*
X3612D01*
X3622D02*
X3630D01*
X3638D02*
X3648D01*
X3582Y4153D02*
X3592D01*
X3604D02*
X3612D01*
X3624D02*
X3628D01*
X3638D02*
X3648D01*
X3582Y4151D02*
X3592D01*
X3604D02*
X3612D01*
X3638D02*
X3648D01*
X3584Y4149D02*
X3592D01*
X3606D02*
X3612D01*
X3640D02*
X3646D01*
X3610Y4275D02*
X3632D01*
X3608Y4273D02*
X3632D01*
X3608Y4271D02*
X3634D01*
X3606Y4269D02*
X3634D01*
X3606Y4267D02*
X3634D01*
X3604Y4265D02*
X3636D01*
X3604Y4263D02*
X3636D01*
X3604Y4261D02*
X3638D01*
X3602Y4259D02*
X3638D01*
X3602Y4257D02*
X3640D01*
X3600Y4255D02*
X3618D01*
X3622D02*
X3640D01*
X3600Y4253D02*
X3618D01*
X3622D02*
X3640D01*
X3598Y4251D02*
X3616D01*
X3622D02*
X3642D01*
X3598Y4249D02*
X3616D01*
X3624D02*
X3642D01*
X3598Y4247D02*
X3616D01*
X3624D02*
X3644D01*
X3596Y4245D02*
X3614D01*
X3626D02*
X3644D01*
X3596Y4243D02*
X3614D01*
X3626D02*
X3646D01*
X3594Y4241D02*
X3612D01*
X3626D02*
X3646D01*
X3594Y4239D02*
X3612D01*
X3628D02*
X3646D01*
X3592Y4237D02*
X3612D01*
X3628D02*
X3648D01*
X3592Y4235D02*
X3612D01*
X3628D02*
X3648D01*
X3592Y4233D02*
X3650D01*
X3590Y4231D02*
X3650D01*
X3590Y4229D02*
X3650D01*
X3586Y4219D02*
X3604D01*
X3584Y4217D02*
X3604D01*
X3584Y4215D02*
X3602D01*
X3582Y4213D02*
X3602D01*
X3582Y4211D02*
X3602D01*
X3582Y4209D02*
X3600D01*
X3582Y4207D02*
X3600D01*
X3660Y4189D02*
X3668D01*
X3686D02*
X3694D01*
X3706D02*
X3714D01*
X3658Y4187D02*
X3668D01*
X3686D02*
X3694D01*
X3706D02*
X3714D01*
X3658Y4185D02*
X3668D01*
X3686D02*
X3694D01*
X3706D02*
X3714D01*
X3658Y4183D02*
X3668D01*
X3686D02*
X3694D01*
X3706D02*
X3714D01*
X3658Y4181D02*
X3668D01*
X3686D02*
X3694D01*
X3706D02*
X3714D01*
X3658Y4179D02*
X3668D01*
X3686D02*
X3694D01*
X3706D02*
X3714D01*
X3658Y4177D02*
X3668D01*
X3686D02*
X3694D01*
X3706D02*
X3714D01*
X3658Y4175D02*
X3668D01*
X3686D02*
X3694D01*
X3706D02*
X3714D01*
X3658Y4173D02*
X3668D01*
X3686D02*
X3694D01*
X3706D02*
X3714D01*
X3658Y4171D02*
X3668D01*
X3686D02*
X3694D01*
X3706D02*
X3714D01*
X3658Y4169D02*
X3668D01*
X3686D02*
X3694D01*
X3706D02*
X3714D01*
X3658Y4167D02*
X3668D01*
X3686D02*
X3694D01*
X3706D02*
X3714D01*
X3658Y4165D02*
X3668D01*
X3686D02*
X3694D01*
X3706D02*
X3714D01*
X3658Y4163D02*
X3668D01*
X3686D02*
X3694D01*
X3706D02*
X3714D01*
X3658Y4161D02*
X3668D01*
X3684D02*
X3694D01*
X3706D02*
X3714D01*
X3660Y4159D02*
X3670D01*
X3684D02*
X3694D01*
X3706D02*
X3714D01*
X3660Y4157D02*
X3674D01*
X3678D02*
X3694D01*
X3706D02*
X3730D01*
X3662Y4155D02*
X3692D01*
X3664Y4153D02*
X3690D01*
X3666Y4151D02*
X3688D01*
X3670Y4149D02*
X3684D01*
X3656Y4275D02*
X3718D01*
X3656Y4273D02*
X3718D01*
X3656Y4271D02*
X3718D01*
X3656Y4269D02*
X3718D01*
X3656Y4267D02*
X3718D01*
X3656Y4265D02*
X3718D01*
X3658Y4263D02*
X3716D01*
X3678Y4261D02*
X3696D01*
X3678Y4259D02*
X3696D01*
X3678Y4257D02*
X3696D01*
X3678Y4255D02*
X3696D01*
X3678Y4253D02*
X3696D01*
X3678Y4251D02*
X3696D01*
X3678Y4249D02*
X3696D01*
X3678Y4247D02*
X3696D01*
X3678Y4245D02*
X3696D01*
X3678Y4243D02*
X3696D01*
X3678Y4241D02*
X3696D01*
X3678Y4239D02*
X3696D01*
X3678Y4237D02*
X3696D01*
X3678Y4235D02*
X3696D01*
X3678Y4233D02*
X3696D01*
X3678Y4231D02*
X3696D01*
X3678Y4229D02*
X3696D01*
X3678Y4227D02*
X3696D01*
X3678Y4225D02*
X3696D01*
X3678Y4223D02*
X3696D01*
X3678Y4221D02*
X3696D01*
X3678Y4219D02*
X3696D01*
X3678Y4217D02*
X3696D01*
X3678Y4215D02*
X3696D01*
X3678Y4213D02*
X3696D01*
X3678Y4211D02*
X3696D01*
X3678Y4209D02*
X3696D01*
X3678Y4207D02*
X3696D01*
X3752Y4189D02*
X3762D01*
X3752Y4187D02*
X3762D01*
X3750Y4185D02*
X3764D01*
X3750Y4183D02*
X3764D01*
X3748Y4181D02*
X3764D01*
X3748Y4179D02*
X3766D01*
X3746Y4177D02*
X3756D01*
X3758D02*
X3766D01*
X3746Y4175D02*
X3756D01*
X3758D02*
X3768D01*
X3746Y4173D02*
X3754D01*
X3760D02*
X3768D01*
X3744Y4171D02*
X3754D01*
X3760D02*
X3770D01*
X3744Y4169D02*
X3752D01*
X3760D02*
X3770D01*
X3742Y4167D02*
X3752D01*
X3762D02*
X3772D01*
X3742Y4165D02*
X3772D01*
X3740Y4163D02*
X3772D01*
X3740Y4161D02*
X3774D01*
X3738Y4159D02*
X3774D01*
X3738Y4157D02*
X3748D01*
X3766D02*
X3776D01*
X3738Y4155D02*
X3746D01*
X3766D02*
X3776D01*
X3736Y4153D02*
X3746D01*
X3768D02*
X3778D01*
X3736Y4151D02*
X3746D01*
X3768D02*
X3778D01*
X3736Y4149D02*
X3744D01*
X3770D02*
X3778D01*
X3846Y4189D02*
X3854D01*
X3846Y4187D02*
X3854D01*
X3846Y4185D02*
X3854D01*
X3846Y4183D02*
X3854D01*
X3846Y4181D02*
X3854D01*
X3880D02*
X3888D01*
X3846Y4179D02*
X3854D01*
X3880D02*
X3888D01*
X3846Y4177D02*
X3854D01*
X3880D02*
X3888D01*
X3846Y4175D02*
X3854D01*
X3880D02*
X3888D01*
X3846Y4173D02*
X3854D01*
X3846Y4171D02*
X3854D01*
X3846Y4169D02*
X3854D01*
X3846Y4167D02*
X3854D01*
X3846Y4165D02*
X3854D01*
X3880D02*
X3888D01*
X3846Y4163D02*
X3854D01*
X3880D02*
X3888D01*
X3846Y4161D02*
X3854D01*
X3880D02*
X3888D01*
X3846Y4159D02*
X3854D01*
X3880D02*
X3888D01*
X3846Y4157D02*
X3870D01*
X3846Y4155D02*
X3870D01*
X3846Y4153D02*
X3870D01*
X3846Y4151D02*
X3870D01*
X3846Y4149D02*
X3870D01*
X3838Y4263D02*
X3864D01*
X3844Y4261D02*
X3864D01*
X3846Y4259D02*
X3866D01*
X3848Y4257D02*
X3866D01*
X3848Y4255D02*
X3866D01*
X3848Y4253D02*
X3866D01*
X3848Y4251D02*
X3866D01*
X3848Y4249D02*
X3866D01*
X3846Y4247D02*
X3866D01*
X3844Y4245D02*
X3864D01*
X3842Y4243D02*
X3864D01*
X3836Y4225D02*
X3856D01*
X3838Y4223D02*
X3858D01*
X3838Y4221D02*
X3860D01*
X3840Y4219D02*
X3860D01*
X3842Y4217D02*
X3862D01*
X3842Y4215D02*
X3864D01*
X3844Y4213D02*
X3864D01*
X3844Y4211D02*
X3866D01*
X3846Y4209D02*
X3866D01*
X3846Y4207D02*
X3866D01*
X3930Y4189D02*
X3946D01*
X3926Y4187D02*
X3950D01*
X3924Y4185D02*
X3954D01*
X3922Y4183D02*
X3954D01*
X3920Y4181D02*
X3934D01*
X3942D02*
X3954D01*
X3920Y4179D02*
X3930D01*
X3948D02*
X3952D01*
X3918Y4177D02*
X3928D01*
X3918Y4175D02*
X3928D01*
X3918Y4173D02*
X3926D01*
X3918Y4171D02*
X3926D01*
X3918Y4169D02*
X3926D01*
X3918Y4167D02*
X3926D01*
X3918Y4165D02*
X3926D01*
X3918Y4163D02*
X3928D01*
X3920Y4161D02*
X3930D01*
X3920Y4159D02*
X3932D01*
X3946D02*
X3952D01*
X3920Y4157D02*
X3954D01*
X3922Y4155D02*
X3954D01*
X3924Y4153D02*
X3952D01*
X3928Y4151D02*
X3950D01*
X3932Y4149D02*
X3944D01*
Y4261D02*
X3970D01*
X3942Y4259D02*
X3966D01*
X3942Y4257D02*
X3964D01*
X3942Y4255D02*
X3962D01*
X3940Y4253D02*
X3962D01*
X3940Y4251D02*
X3960D01*
X3940Y4249D02*
X3960D01*
X3940Y4247D02*
X3958D01*
X3940Y4245D02*
X3958D01*
X3940Y4243D02*
X3958D01*
X3940Y4241D02*
X3958D01*
X3940Y4239D02*
X3958D01*
X3940Y4237D02*
X3960D01*
X3940Y4235D02*
X3960D01*
X3940Y4233D02*
X3960D01*
X3942Y4231D02*
X3962D01*
X3942Y4229D02*
X3964D01*
X3942Y4227D02*
X3966D01*
X3944Y4225D02*
X3968D01*
X4000Y4189D02*
X4024D01*
X4000Y4187D02*
X4028D01*
X4000Y4185D02*
X4030D01*
X4000Y4183D02*
X4032D01*
X4000Y4181D02*
X4008D01*
X4020D02*
X4032D01*
X4000Y4179D02*
X4008D01*
X4024D02*
X4032D01*
X4000Y4177D02*
X4008D01*
X4024D02*
X4032D01*
X4000Y4175D02*
X4008D01*
X4026D02*
X4032D01*
X4000Y4173D02*
X4008D01*
X4024D02*
X4032D01*
X4000Y4171D02*
X4008D01*
X4022D02*
X4032D01*
X4000Y4169D02*
X4032D01*
X4000Y4167D02*
X4030D01*
X4000Y4165D02*
X4030D01*
X4000Y4163D02*
X4026D01*
X4000Y4161D02*
X4026D01*
X4000Y4159D02*
X4008D01*
X4018D02*
X4028D01*
X4000Y4157D02*
X4008D01*
X4020D02*
X4030D01*
X4000Y4155D02*
X4008D01*
X4020D02*
X4030D01*
X4000Y4153D02*
X4008D01*
X4022D02*
X4032D01*
X4000Y4151D02*
X4008D01*
X4024D02*
X4032D01*
X4000Y4149D02*
X4008D01*
X4026D02*
X4032D01*
X3986Y4261D02*
X4012D01*
X3990Y4259D02*
X4014D01*
X3992Y4257D02*
X4014D01*
X4026D02*
X4050D01*
X3994Y4255D02*
X4014D01*
X4026D02*
X4048D01*
X3994Y4253D02*
X4016D01*
X4026D02*
X4046D01*
X3996Y4251D02*
X4016D01*
X4026D02*
X4046D01*
X3996Y4249D02*
X4016D01*
X4024D02*
X4044D01*
X3998Y4247D02*
X4016D01*
X4024D02*
X4044D01*
X3998Y4245D02*
X4016D01*
X4024D02*
X4044D01*
X3998Y4243D02*
X4016D01*
X4024D02*
X4044D01*
X3998Y4241D02*
X4016D01*
X4024D02*
X4044D01*
X3998Y4239D02*
X4016D01*
X4024D02*
X4044D01*
X3996Y4237D02*
X4016D01*
X4024D02*
X4044D01*
X3996Y4235D02*
X4016D01*
X4026D02*
X4044D01*
X3996Y4233D02*
X4016D01*
X4026D02*
X4046D01*
X3994Y4231D02*
X4016D01*
X4026D02*
X4046D01*
X3992Y4229D02*
X4014D01*
X4026D02*
X4048D01*
X3990Y4227D02*
X4014D01*
X4028D02*
X4050D01*
X3988Y4225D02*
X4012D01*
X3984Y4223D02*
X4012D01*
X4076Y4189D02*
X4092D01*
X4072Y4187D02*
X4096D01*
X4070Y4185D02*
X4098D01*
X4068Y4183D02*
X4098D01*
X4066Y4181D02*
X4080D01*
X4088D02*
X4098D01*
X4064Y4179D02*
X4076D01*
X4092D02*
X4096D01*
X4064Y4177D02*
X4074D01*
X4126D02*
X4130D01*
X4064Y4175D02*
X4072D01*
X4124D02*
X4130D01*
X4062Y4173D02*
X4072D01*
X4124D02*
X4130D01*
X4062Y4171D02*
X4070D01*
X4124D02*
X4130D01*
X4062Y4169D02*
X4070D01*
X4062Y4167D02*
X4070D01*
X4062Y4165D02*
X4072D01*
X4064Y4163D02*
X4072D01*
X4064Y4161D02*
X4074D01*
X4094D02*
X4096D01*
X4064Y4159D02*
X4076D01*
X4092D02*
X4098D01*
X4066Y4157D02*
X4098D01*
X4068Y4155D02*
X4100D01*
X4070Y4153D02*
X4098D01*
X4072Y4151D02*
X4094D01*
X4078Y4149D02*
X4090D01*
X4072Y4261D02*
X4096D01*
X4074Y4259D02*
X4098D01*
X4076Y4257D02*
X4100D01*
X4078Y4255D02*
X4100D01*
X4080Y4253D02*
X4100D01*
X4080Y4251D02*
X4100D01*
X4082Y4249D02*
X4102D01*
X4082Y4247D02*
X4102D01*
X4082Y4245D02*
X4102D01*
X4082Y4243D02*
X4102D01*
X4082Y4241D02*
X4102D01*
X4082Y4239D02*
X4102D01*
X4082Y4237D02*
X4102D01*
X4082Y4235D02*
X4102D01*
X4080Y4233D02*
X4100D01*
X4080Y4231D02*
X4100D01*
X4078Y4229D02*
X4100D01*
X4076Y4227D02*
X4098D01*
X4074Y4225D02*
X4098D01*
X4070Y4223D02*
X4096D01*
X4056Y4279D02*
X4070D01*
X4146Y4237D02*
X4162D01*
X4148Y4235D02*
X4154D01*
X4166Y4229D02*
X4192D01*
X4158Y4227D02*
X4202D01*
X4154Y4225D02*
X4206D01*
X4150Y4223D02*
X4210D01*
X4156Y4283D02*
X4168D01*
X4138Y4281D02*
X4188D01*
X4240Y4195D02*
X4266D01*
X4272D02*
X4288D01*
X4240Y4193D02*
X4266D01*
X4276D02*
X4290D01*
X4240Y4191D02*
X4266D01*
X4280D02*
X4290D01*
X4242Y4189D02*
X4266D01*
X4284D02*
X4290D01*
X4242Y4187D02*
X4266D01*
X4242Y4185D02*
X4266D01*
X4242Y4183D02*
X4266D01*
X4242Y4181D02*
X4266D01*
X4244Y4179D02*
X4266D01*
X4244Y4177D02*
X4268D01*
X4244Y4175D02*
X4260D01*
X4266D02*
X4270D01*
X4246Y4173D02*
X4262D01*
X4266D02*
X4276D01*
X4246Y4171D02*
X4262D01*
X4266D02*
X4282D01*
X4248Y4169D02*
X4262D01*
X4248Y4167D02*
X4262D01*
X4266D02*
X4290D01*
X4248Y4165D02*
X4264D01*
X4266D02*
X4290D01*
X4250Y4163D02*
X4264D01*
X4266D02*
X4290D01*
X4250Y4161D02*
X4264D01*
X4266D02*
X4290D01*
X4252Y4159D02*
X4290D01*
X4252Y4157D02*
X4290D01*
X4254Y4155D02*
X4290D01*
X4254Y4153D02*
X4268D01*
X4272D02*
X4290D01*
X4256Y4151D02*
X4268D01*
X4276D02*
X4290D01*
X4256Y4149D02*
X4270D01*
X4258Y4147D02*
X4270D01*
X4260Y4145D02*
X4272D01*
X4262Y4143D02*
X4274D01*
X4262Y4141D02*
X4274D01*
X4264Y4139D02*
X4276D01*
X4266Y4137D02*
X4278D01*
X4270Y4135D02*
X4280D01*
X4272Y4133D02*
X4284D01*
X4276Y4131D02*
X4286D01*
X4216Y4229D02*
X4252D01*
X4254D02*
X4260D01*
X4218Y4227D02*
X4252D01*
X4256D02*
X4262D01*
X4220Y4225D02*
X4254D01*
X4258D02*
X4262D01*
X4222Y4223D02*
X4254D01*
X4260D02*
X4262D01*
X4224Y4221D02*
X4254D01*
X4262D02*
X4266D01*
X4226Y4219D02*
X4254D01*
X4262D02*
X4268D01*
X4228Y4217D02*
X4254D01*
X4264D02*
X4270D01*
X4230Y4215D02*
X4254D01*
X4264D02*
X4274D01*
X4230Y4213D02*
X4256D01*
X4264D02*
X4276D01*
X4232Y4211D02*
X4256D01*
X4264D02*
X4280D01*
X4234Y4209D02*
X4256D01*
X4264D02*
X4282D01*
X4234Y4207D02*
X4256D01*
X4264D02*
X4284D01*
X4236Y4205D02*
X4256D01*
X4264D02*
X4286D01*
X4236Y4203D02*
X4260D01*
X4264D02*
X4288D01*
X4238Y4201D02*
X4288D01*
X4238Y4199D02*
X4288D01*
X4312Y4195D02*
X4338D01*
X4354D02*
X4362D01*
X4312Y4193D02*
X4338D01*
X4354D02*
X4358D01*
X4312Y4191D02*
X4336D01*
X4352D02*
X4354D01*
X4312Y4189D02*
X4336D01*
X4346D02*
X4354D01*
X4312Y4187D02*
X4354D01*
X4312Y4185D02*
X4322D01*
X4334D02*
X4354D01*
X4334Y4183D02*
X4352D01*
X4334Y4181D02*
X4352D01*
X4366D02*
X4370D01*
X4334Y4179D02*
X4352D01*
X4362D02*
X4370D01*
X4334Y4177D02*
X4352D01*
X4358D02*
X4370D01*
X4334Y4175D02*
X4352D01*
X4354D02*
X4370D01*
X4334Y4173D02*
X4370D01*
X4334Y4171D02*
X4368D01*
X4322Y4169D02*
X4344D01*
X4350D02*
X4368D01*
X4350Y4167D02*
X4368D01*
X4298Y4165D02*
X4308D01*
X4310D02*
X4334D01*
X4350D02*
X4366D01*
X4310Y4163D02*
X4334D01*
X4350D02*
X4364D01*
X4310Y4161D02*
X4334D01*
X4350D02*
X4360D01*
X4310Y4159D02*
X4334D01*
X4350D02*
X4358D01*
X4310Y4157D02*
X4334D01*
X4350D02*
X4354D01*
X4310Y4155D02*
X4332D01*
X4346D02*
X4350D01*
X4310Y4153D02*
X4334D01*
X4336D02*
X4350D01*
X4310Y4151D02*
X4350D01*
X4332Y4149D02*
X4348D01*
X4330Y4147D02*
X4348D01*
X4330Y4145D02*
X4344D01*
X4330Y4143D02*
X4342D01*
X4330Y4141D02*
X4336D01*
X4326Y4199D02*
X4336D01*
X4354D02*
X4368D01*
X4388Y4231D02*
X4390D01*
X4384Y4229D02*
X4390D01*
X4380Y4227D02*
X4390D01*
X4380Y4225D02*
X4388D01*
X4378Y4223D02*
X4388D01*
X4378Y4221D02*
X4386D01*
X4378Y4219D02*
X4386D01*
X4376Y4217D02*
X4384D01*
X4376Y4215D02*
X4380D01*
X4376Y4213D02*
X4378D01*
X3518Y4277D02*
X3536D01*
X3610D02*
X3630D01*
X3656D02*
X3718D01*
X4238Y4197D02*
X4266D01*
X4268D02*
X4288D01*
X4314D02*
X4338D01*
X4354D02*
X4364D01*
X3474Y4189D02*
X3502D01*
X3472Y4187D02*
X3502D01*
X3472Y4185D02*
X3502D01*
X3472Y4183D02*
X3502D01*
X3472Y4173D02*
X3498D01*
X3472Y4171D02*
X3500D01*
X3472Y4169D02*
X3500D01*
X3472Y4167D02*
X3500D01*
X3472Y4165D02*
X3500D01*
X3472Y4275D02*
X3492D01*
X3472Y4273D02*
X3492D01*
X3474Y4271D02*
X3494D01*
X3474Y4269D02*
X3494D01*
X3474Y4267D02*
X3494D01*
X3476Y4265D02*
X3496D01*
X3476Y4263D02*
X3496D01*
X3476Y4261D02*
X3496D01*
X3478Y4259D02*
X3496D01*
X3478Y4257D02*
X3498D01*
X3478Y4255D02*
X3498D01*
X3478Y4253D02*
X3498D01*
X3480Y4251D02*
X3498D01*
X3480Y4249D02*
X3500D01*
X3482Y4247D02*
X3500D01*
X3482Y4245D02*
X3500D01*
X3482Y4243D02*
X3500D01*
X3484Y4241D02*
X3502D01*
X3484Y4239D02*
X3502D01*
X3484Y4237D02*
X3502D01*
X3486Y4235D02*
X3504D01*
X3486Y4233D02*
X3504D01*
X3486Y4231D02*
X3504D01*
X3486Y4229D02*
X3520D01*
X3488Y4227D02*
X3520D01*
X3488Y4225D02*
X3520D01*
X3490Y4223D02*
X3518D01*
X3490Y4221D02*
X3518D01*
X3490Y4219D02*
X3518D01*
X3492Y4217D02*
X3516D01*
X3492Y4215D02*
X3516D01*
X3492Y4213D02*
X3516D01*
X3492Y4211D02*
X3516D01*
X3560Y4189D02*
X3584D01*
X3806D02*
X3834D01*
X3558Y4187D02*
X3588D01*
X3804D02*
X3834D01*
X3558Y4185D02*
X3590D01*
X3804D02*
X3834D01*
X3558Y4183D02*
X3590D01*
X3804D02*
X3834D01*
X3804Y4181D02*
X3814D01*
X3804Y4179D02*
X3814D01*
X3804Y4177D02*
X3814D01*
X3804Y4175D02*
X3814D01*
X3804Y4173D02*
X3832D01*
X3804Y4171D02*
X3832D01*
X3558Y4169D02*
X3592D01*
X3804D02*
X3832D01*
X3558Y4167D02*
X3590D01*
X3804D02*
X3832D01*
X3558Y4165D02*
X3588D01*
X3804D02*
X3814D01*
X3558Y4163D02*
X3586D01*
X3804D02*
X3814D01*
X3558Y4161D02*
X3586D01*
X3804D02*
X3814D01*
X3804Y4159D02*
X3814D01*
X3804Y4157D02*
X3834D01*
X3706Y4155D02*
X3732D01*
X3804D02*
X3834D01*
X3706Y4153D02*
X3732D01*
X3804D02*
X3836D01*
X3706Y4151D02*
X3732D01*
X3804D02*
X3834D01*
X3708Y4149D02*
X3732D01*
X3806D02*
X3834D01*
X3562Y4275D02*
X3582D01*
X3730D02*
X3786D01*
X3562Y4273D02*
X3580D01*
X3730D02*
X3786D01*
X3560Y4271D02*
X3580D01*
X3730D02*
X3786D01*
X3560Y4269D02*
X3580D01*
X3730D02*
X3786D01*
X3560Y4267D02*
X3580D01*
X3730D02*
X3786D01*
X3560Y4265D02*
X3578D01*
X3730D02*
X3786D01*
X3558Y4263D02*
X3578D01*
X3730D02*
X3750D01*
X3804D02*
X3824D01*
X3558Y4261D02*
X3578D01*
X3730D02*
X3748D01*
X3804D02*
X3822D01*
X3558Y4259D02*
X3576D01*
X3730D02*
X3748D01*
X3804D02*
X3822D01*
X3558Y4257D02*
X3576D01*
X3730D02*
X3748D01*
X3804D02*
X3822D01*
X3556Y4255D02*
X3574D01*
X3730D02*
X3748D01*
X3804D02*
X3822D01*
X3556Y4253D02*
X3574D01*
X3730D02*
X3748D01*
X3804D02*
X3822D01*
X3556Y4251D02*
X3574D01*
X3730D02*
X3750D01*
X3804D02*
X3822D01*
X3556Y4249D02*
X3574D01*
X3730D02*
X3782D01*
X3804D02*
X3822D01*
X3554Y4247D02*
X3572D01*
X3730D02*
X3782D01*
X3804D02*
X3822D01*
X3554Y4245D02*
X3572D01*
X3730D02*
X3782D01*
X3804D02*
X3822D01*
X3554Y4243D02*
X3572D01*
X3730D02*
X3782D01*
X3804D02*
X3822D01*
X3730Y4241D02*
X3782D01*
X3730Y4239D02*
X3782D01*
X3730Y4237D02*
X3782D01*
X3730Y4235D02*
X3780D01*
X3730Y4233D02*
X3748D01*
X3730Y4231D02*
X3748D01*
X3730Y4229D02*
X3748D01*
X3588Y4227D02*
X3652D01*
X3730D02*
X3748D01*
X3588Y4225D02*
X3652D01*
X3730D02*
X3748D01*
X3804D02*
X3822D01*
X3586Y4223D02*
X3654D01*
X3730D02*
X3750D01*
X3804D02*
X3822D01*
X3586Y4221D02*
X3654D01*
X3730D02*
X3788D01*
X3804D02*
X3822D01*
X3634Y4219D02*
X3656D01*
X3730D02*
X3788D01*
X3804D02*
X3822D01*
X3636Y4217D02*
X3656D01*
X3730D02*
X3788D01*
X3804D02*
X3822D01*
X3636Y4215D02*
X3656D01*
X3730D02*
X3788D01*
X3804D02*
X3822D01*
X3638Y4213D02*
X3658D01*
X3730D02*
X3788D01*
X3804D02*
X3822D01*
X3638Y4211D02*
X3658D01*
X3730D02*
X3788D01*
X3804D02*
X3822D01*
X3638Y4209D02*
X3660D01*
X3730D02*
X3788D01*
X3804D02*
X3822D01*
X3640Y4207D02*
X3658D01*
X3730D02*
X3788D01*
X3804D02*
X3822D01*
X4130Y4191D02*
X4136D01*
X3880Y4189D02*
X3908D01*
X3960D02*
X3992D01*
X4046D02*
X4052D01*
X4128D02*
X4134D01*
X3880Y4187D02*
X3908D01*
X3958D02*
X3992D01*
X4044D02*
X4052D01*
X4128D02*
X4134D01*
X3880Y4185D02*
X3908D01*
X3958D02*
X3992D01*
X4044D02*
X4052D01*
X4128D02*
X4134D01*
X3880Y4183D02*
X3908D01*
X3958D02*
X3992D01*
X4044D02*
X4052D01*
X4128D02*
X4132D01*
X3972Y4181D02*
X3980D01*
X4044D02*
X4052D01*
X4126D02*
X4132D01*
X3972Y4179D02*
X3980D01*
X4044D02*
X4052D01*
X4126D02*
X4132D01*
X3972Y4177D02*
X3980D01*
X4044D02*
X4052D01*
X3972Y4175D02*
X3980D01*
X4044D02*
X4052D01*
X3880Y4173D02*
X3906D01*
X3972D02*
X3980D01*
X4044D02*
X4052D01*
X3880Y4171D02*
X3906D01*
X3972D02*
X3980D01*
X4044D02*
X4052D01*
X3880Y4169D02*
X3906D01*
X3972D02*
X3980D01*
X4044D02*
X4052D01*
X4122D02*
X4148D01*
X3880Y4167D02*
X3906D01*
X3972D02*
X3980D01*
X4044D02*
X4052D01*
X3972Y4165D02*
X3980D01*
X4044D02*
X4052D01*
X3972Y4163D02*
X3980D01*
X4044D02*
X4052D01*
X3972Y4161D02*
X3980D01*
X4044D02*
X4052D01*
X3972Y4159D02*
X3980D01*
X4044D02*
X4052D01*
X3880Y4157D02*
X3908D01*
X3972D02*
X3980D01*
X4044D02*
X4052D01*
X3880Y4155D02*
X3910D01*
X3972D02*
X3980D01*
X4044D02*
X4052D01*
X3880Y4153D02*
X3910D01*
X3972D02*
X3980D01*
X4044D02*
X4052D01*
X3880Y4151D02*
X3910D01*
X3972D02*
X3980D01*
X4044D02*
X4052D01*
X3880Y4149D02*
X3910D01*
X3972D02*
X3978D01*
X4046D02*
X4052D01*
X4120Y4133D02*
X4170D01*
X4124Y4131D02*
X4158D01*
X4126Y4129D02*
X4146D01*
X3882Y4275D02*
X3900D01*
X3958D02*
X3998D01*
X4044D02*
X4082D01*
X3882Y4273D02*
X3900D01*
X3956D02*
X4000D01*
X4040D02*
X4086D01*
X3882Y4271D02*
X3900D01*
X3952D02*
X4004D01*
X4038D02*
X4088D01*
X3882Y4269D02*
X3900D01*
X3950D02*
X4006D01*
X4036D02*
X4090D01*
X3882Y4267D02*
X3900D01*
X3948D02*
X4008D01*
X4034D02*
X4092D01*
X3882Y4265D02*
X3900D01*
X3946D02*
X4010D01*
X4032D02*
X4094D01*
X3882Y4263D02*
X3900D01*
X3946D02*
X4010D01*
X4030D02*
X4096D01*
X3882Y4261D02*
X3900D01*
X4028D02*
X4054D01*
X3882Y4259D02*
X3900D01*
X4028D02*
X4052D01*
X3882Y4257D02*
X3900D01*
X3882Y4255D02*
X3900D01*
X3882Y4253D02*
X3900D01*
X3882Y4251D02*
X3900D01*
X3882Y4249D02*
X3900D01*
X3882Y4247D02*
X3900D01*
X3882Y4245D02*
X3900D01*
X3882Y4243D02*
X3900D01*
X3882Y4241D02*
X3900D01*
X3882Y4239D02*
X3900D01*
X3882Y4237D02*
X3900D01*
X3882Y4235D02*
X3900D01*
X3882Y4233D02*
X3900D01*
X3882Y4231D02*
X3900D01*
X3882Y4229D02*
X3900D01*
X3882Y4227D02*
X3900D01*
X3882Y4225D02*
X3900D01*
X4028D02*
X4052D01*
X3882Y4223D02*
X3902D01*
X3944D02*
X3972D01*
X4030D02*
X4056D01*
X3882Y4221D02*
X3930D01*
X3946D02*
X4010D01*
X4030D02*
X4096D01*
X3882Y4219D02*
X3930D01*
X3948D02*
X4008D01*
X4032D02*
X4094D01*
X3882Y4217D02*
X3930D01*
X3950D02*
X4006D01*
X4034D02*
X4092D01*
X3882Y4215D02*
X3930D01*
X3952D02*
X4004D01*
X4036D02*
X4090D01*
X3882Y4213D02*
X3930D01*
X3954D02*
X4002D01*
X4038D02*
X4088D01*
X3882Y4211D02*
X3930D01*
X3956D02*
X4000D01*
X4042D02*
X4084D01*
X3882Y4209D02*
X3930D01*
X3960D02*
X3996D01*
X4046D02*
X4080D01*
X3882Y4207D02*
X3930D01*
X3966D02*
X3990D01*
X4050D02*
X4074D01*
X3972Y4279D02*
X3984D01*
X4174Y4189D02*
X4230D01*
X4180Y4187D02*
X4230D01*
X4288D02*
X4292D01*
X4182Y4185D02*
X4230D01*
X4288D02*
X4298D01*
X4182Y4183D02*
X4230D01*
X4288D02*
X4314D01*
X4182Y4181D02*
X4230D01*
X4288D02*
X4312D01*
X4182Y4179D02*
X4230D01*
X4288D02*
X4312D01*
X4182Y4177D02*
X4230D01*
X4288D02*
X4312D01*
X4180Y4175D02*
X4230D01*
X4288D02*
X4312D01*
X4180Y4173D02*
X4230D01*
X4288D02*
X4312D01*
X4176Y4171D02*
X4228D01*
X4288D02*
X4312D01*
X4266Y4169D02*
X4312D01*
X4292Y4167D02*
X4334D01*
X4284Y4149D02*
X4312D01*
X4288Y4147D02*
X4310D01*
X4288Y4145D02*
X4310D01*
X4288Y4143D02*
X4310D01*
X4288Y4141D02*
X4310D01*
X4288Y4139D02*
X4310D01*
X4288Y4137D02*
X4310D01*
X4288Y4135D02*
X4310D01*
X4288Y4133D02*
X4310D01*
X4288Y4131D02*
X4304D01*
X4284Y4129D02*
X4292D01*
X4198Y4237D02*
X4256D01*
X4204Y4235D02*
X4256D01*
X4208Y4233D02*
X4258D01*
X4212Y4231D02*
X4260D01*
X4372Y4211D02*
X4376D01*
X4368Y4209D02*
X4376D01*
X4364Y4207D02*
X4374D01*
X4360Y4205D02*
X4374D01*
X4358Y4203D02*
X4372D01*
X4356Y4201D02*
X4372D01*
X3472Y4277D02*
X3492D01*
X3562D02*
X3582D01*
X3730D02*
X3786D01*
X3804D02*
X3848D01*
X3882D02*
X3900D01*
X3964D02*
X3992D01*
X4048D02*
X4078D01*
X4130Y4195D02*
X4230D01*
X4130Y4193D02*
X4230D01*
X4162Y4191D02*
X4230D01*
X4172Y4169D02*
X4228D01*
X4122Y4167D02*
X4228D01*
X4122Y4165D02*
X4228D01*
X4120Y4163D02*
X4226D01*
X4120Y4161D02*
X4226D01*
X4120Y4159D02*
X4226D01*
X4118Y4157D02*
X4226D01*
X4118Y4155D02*
X4224D01*
X4118Y4153D02*
X4224D01*
X4118Y4151D02*
X4224D01*
X4118Y4149D02*
X4222D01*
X4118Y4147D02*
X4220D01*
X4116Y4145D02*
X4216D01*
X4116Y4143D02*
X4210D01*
X4116Y4141D02*
X4204D01*
X4116Y4139D02*
X4196D01*
X4118Y4137D02*
X4190D01*
X4118Y4135D02*
X4182D01*
X3804Y4275D02*
X3854D01*
X4132D02*
X4210D01*
X3804Y4273D02*
X3858D01*
X4132D02*
X4214D01*
X3804Y4271D02*
X3860D01*
X4132D02*
X4218D01*
X3804Y4269D02*
X3860D01*
X4134D02*
X4222D01*
X3804Y4267D02*
X3862D01*
X4134D02*
X4226D01*
X3804Y4265D02*
X3864D01*
X4136D02*
X4230D01*
X4136Y4263D02*
X4232D01*
X4136Y4261D02*
X4234D01*
X4138Y4259D02*
X4236D01*
X4138Y4257D02*
X4238D01*
X4140Y4255D02*
X4240D01*
X4140Y4253D02*
X4244D01*
X4140Y4251D02*
X4246D01*
X4142Y4249D02*
X4248D01*
X4142Y4247D02*
X4250D01*
X4142Y4245D02*
X4250D01*
X4144Y4243D02*
X4252D01*
X3804Y4241D02*
X3864D01*
X4144D02*
X4254D01*
X3804Y4239D02*
X3862D01*
X4146D02*
X4254D01*
X3804Y4237D02*
X3862D01*
X3804Y4235D02*
X3860D01*
X3804Y4233D02*
X3858D01*
X3804Y4231D02*
X3854D01*
X3804Y4229D02*
X3854D01*
X3804Y4227D02*
X3856D01*
X4148Y4221D02*
X4212D01*
X4144Y4219D02*
X4216D01*
X4142Y4217D02*
X4218D01*
X4140Y4215D02*
X4220D01*
X4138Y4213D02*
X4222D01*
X4138Y4211D02*
X4222D01*
X4136Y4209D02*
X4224D01*
X4134Y4207D02*
X4226D01*
X4134Y4205D02*
X4226D01*
X4134Y4203D02*
X4228D01*
X4134Y4201D02*
X4228D01*
X4132Y4199D02*
X4228D01*
X4132Y4279D02*
X4196D01*
X4132Y4197D02*
X4230D01*
X4130Y4277D02*
X4202D01*
D43*
X4046Y2523D02*
X4054D01*
X4046Y2477D02*
X4054D01*
X4048Y2441D02*
X4056D01*
X4048Y2396D02*
X4056D01*
X3847Y2856D02*
Y2864D01*
X3802Y2856D02*
Y2864D01*
X3884Y2856D02*
Y2864D01*
X3931Y2856D02*
Y2864D01*
X2988Y3709D02*
Y3795D01*
X3012Y3709D02*
Y3795D01*
X2988D02*
X3012D01*
X2988Y3709D02*
X3012D01*
X3182Y3667D02*
X3308D01*
X3182Y3844D02*
X3308D01*
Y3667D02*
Y3844D01*
X3182Y3667D02*
Y3844D01*
X3186Y3977D02*
Y4174D01*
X3060Y3977D02*
Y4174D01*
Y3977D02*
X3186D01*
X3060Y4174D02*
X3186D01*
X3760Y2996D02*
Y3004D01*
X3805Y2996D02*
Y3004D01*
X3760Y2558D02*
Y2566D01*
X3805Y2558D02*
Y2566D01*
X3847Y2710D02*
Y2718D01*
X3802Y2710D02*
Y2718D01*
X2430Y3558D02*
Y3566D01*
X2385Y3558D02*
Y3566D01*
X3240Y3925D02*
X3248D01*
X3240Y3880D02*
X3248D01*
X3137Y3588D02*
X3145D01*
X3137Y3633D02*
X3145D01*
X4082Y2211D02*
Y2219D01*
X4036Y2211D02*
Y2219D01*
X4159Y2128D02*
X4199D01*
Y2099D02*
Y2128D01*
X4159Y2006D02*
X4199D01*
Y2034D01*
X3954Y2211D02*
Y2219D01*
X3999Y2211D02*
Y2219D01*
X4202Y2211D02*
Y2219D01*
X4247Y2211D02*
Y2219D01*
X4119Y2211D02*
Y2219D01*
X4164Y2211D02*
Y2219D01*
X4253Y3972D02*
Y3980D01*
X4208Y3972D02*
Y3980D01*
X4014Y3971D02*
Y3979D01*
X3969Y3971D02*
Y3979D01*
X3772Y3969D02*
Y3977D01*
X3727Y3969D02*
Y3977D01*
X3526Y3969D02*
Y3976D01*
X3480Y3969D02*
Y3976D01*
X4136Y3800D02*
Y3808D01*
X4091Y3800D02*
Y3808D01*
X3888Y3801D02*
Y3809D01*
X3843Y3801D02*
Y3809D01*
X3647Y3803D02*
Y3811D01*
X3601Y3803D02*
Y3811D01*
X4375Y3798D02*
Y3806D01*
X4329Y3798D02*
Y3806D01*
X4405Y3944D02*
Y3983D01*
X4375Y3944D02*
X4405D01*
X4286D02*
Y3983D01*
Y3944D02*
X4316D01*
X4168D02*
Y3983D01*
X4139Y3944D02*
X4168D01*
X4050D02*
Y3983D01*
Y3944D02*
X4080D01*
X3925D02*
Y3983D01*
X3895Y3944D02*
X3925D01*
X3806D02*
Y3983D01*
Y3944D02*
X3836D01*
X3677D02*
Y3983D01*
X3647Y3944D02*
X3677D01*
X3559D02*
Y3983D01*
Y3944D02*
X3588D01*
X4646Y2147D02*
Y4156D01*
X4446Y2147D02*
Y4156D01*
X4646D01*
X4446Y2147D02*
X4646D01*
X2246D02*
Y4156D01*
X2046Y2147D02*
Y4156D01*
X2246D01*
X2046Y2147D02*
X2246D01*
X3999Y2036D02*
Y2127D01*
X4023Y2036D02*
Y2127D01*
X3999D02*
X4023D01*
X3999Y2036D02*
X4023D01*
X3934Y2711D02*
Y2719D01*
X3887Y2711D02*
Y2719D01*
X2978Y3602D02*
X2986D01*
X2978Y3650D02*
X2986D01*
X2970Y3957D02*
X2978D01*
X2970Y3909D02*
X2978D01*
X4331Y2211D02*
Y2219D01*
X4283Y2211D02*
Y2219D01*
X4136Y3387D02*
Y3395D01*
X4089Y3387D02*
Y3395D01*
X4038Y3387D02*
Y3395D01*
X3991Y3387D02*
Y3395D01*
X3843Y3387D02*
Y3395D01*
X3795Y3387D02*
Y3395D01*
X3940Y3387D02*
Y3395D01*
X3893Y3387D02*
Y3395D01*
X4398Y2830D02*
Y2838D01*
X4350Y2830D02*
Y2838D01*
X4316Y2830D02*
Y2838D01*
X4269Y2830D02*
Y2838D01*
X4025Y2636D02*
Y2785D01*
Y2636D02*
X4071D01*
X4157D02*
X4202D01*
Y2785D01*
X4054Y2813D02*
X4071D01*
X4025Y2785D02*
X4054Y2813D01*
X4174D02*
X4202Y2785D01*
X4157Y2813D02*
X4174D01*
X4179Y2429D02*
X4301D01*
X4179Y2469D02*
X4301D01*
X4179Y2429D02*
Y2469D01*
X4301Y2429D02*
Y2469D01*
D44*
X2294Y4302D02*
X2841D01*
D45*
X3896Y2488D02*
Y2518D01*
X3911D01*
X3916Y2513D01*
Y2503D01*
X3911Y2498D01*
X3896D01*
X3906D02*
X3916Y2488D01*
X3946D02*
X3926D01*
X3946Y2508D01*
Y2513D01*
X3941Y2518D01*
X3931D01*
X3926Y2513D01*
X3976Y2488D02*
X3956D01*
X3976Y2508D01*
Y2513D01*
X3971Y2518D01*
X3961D01*
X3956Y2513D01*
X3898Y2411D02*
Y2441D01*
X3913D01*
X3918Y2436D01*
Y2426D01*
X3913Y2421D01*
X3898D01*
X3908D02*
X3918Y2411D01*
X3948D02*
X3928D01*
X3948Y2431D01*
Y2436D01*
X3943Y2441D01*
X3933D01*
X3928Y2436D01*
X3958Y2411D02*
X3968D01*
X3963D01*
Y2441D01*
X3958Y2436D01*
X4138Y2561D02*
Y2531D01*
X4153D01*
X4158Y2536D01*
Y2556D01*
X4153Y2561D01*
X4138D01*
X4188D02*
X4168D01*
Y2546D01*
X4178Y2551D01*
X4183D01*
X4188Y2546D01*
Y2536D01*
X4183Y2531D01*
X4173D01*
X4168Y2536D01*
D46*
X2411Y2604D02*
X2406Y2609D01*
X2396D01*
X2391Y2604D01*
Y2584D01*
X2396Y2579D01*
X2406D01*
X2411Y2584D01*
Y2594D01*
X2401D01*
X2421Y2579D02*
Y2609D01*
X2441Y2579D01*
Y2609D01*
X2451D02*
Y2579D01*
X2466D01*
X2471Y2584D01*
Y2604D01*
X2466Y2609D01*
X2451D01*
X2558Y3044D02*
Y3024D01*
X2568Y3014D01*
X2578Y3024D01*
Y3044D01*
X2588Y3014D02*
Y3044D01*
X2603D01*
X2608Y3039D01*
Y3029D01*
X2603Y3024D01*
X2588D01*
X2598D02*
X2608Y3014D01*
X2638D02*
X2618D01*
X2638Y3034D01*
Y3039D01*
X2633Y3044D01*
X2623D01*
X2618Y3039D01*
X2578Y3555D02*
Y3535D01*
X2588Y3525D01*
X2598Y3535D01*
Y3555D01*
X2608Y3525D02*
Y3555D01*
X2623D01*
X2628Y3550D01*
Y3540D01*
X2623Y3535D01*
X2608D01*
X2618D02*
X2628Y3525D01*
X2638D02*
X2648D01*
X2643D01*
Y3555D01*
X2638Y3550D01*
X2912Y3830D02*
Y3805D01*
X2917Y3800D01*
X2927D01*
X2932Y3805D01*
Y3830D01*
X2962D02*
X2942D01*
Y3815D01*
X2952Y3820D01*
X2957D01*
X2962Y3815D01*
Y3805D01*
X2957Y3800D01*
X2947D01*
X2942Y3805D01*
X3326Y3874D02*
Y3849D01*
X3331Y3844D01*
X3341D01*
X3346Y3849D01*
Y3874D01*
X3371Y3844D02*
Y3874D01*
X3356Y3859D01*
X3376D01*
X4234Y2751D02*
Y2726D01*
X4239Y2721D01*
X4249D01*
X4254Y2726D01*
Y2751D01*
X4284Y2721D02*
X4264D01*
X4284Y2741D01*
Y2746D01*
X4279Y2751D01*
X4269D01*
X4264Y2746D01*
X3061Y4225D02*
Y4200D01*
X3066Y4195D01*
X3076D01*
X3081Y4200D01*
Y4225D01*
X3091Y4195D02*
X3101D01*
X3096D01*
Y4225D01*
X3091Y4220D01*
X2420Y2913D02*
X2400D01*
Y2898D01*
X2410Y2903D01*
X2415D01*
X2420Y2898D01*
Y2888D01*
X2415Y2883D01*
X2405D01*
X2400Y2888D01*
X2430Y2913D02*
Y2893D01*
X2440Y2883D01*
X2450Y2893D01*
Y2913D01*
X2389Y2764D02*
X2394Y2769D01*
X2404D01*
X2409Y2764D01*
Y2759D01*
X2404Y2754D01*
X2399D01*
X2404D01*
X2409Y2749D01*
Y2744D01*
X2404Y2739D01*
X2394D01*
X2389Y2744D01*
X2419Y2769D02*
Y2749D01*
X2429Y2739D01*
X2439Y2749D01*
Y2769D01*
X2449Y2764D02*
X2454Y2769D01*
X2464D01*
X2469Y2764D01*
Y2759D01*
X2464Y2754D01*
X2459D01*
X2464D01*
X2469Y2749D01*
Y2744D01*
X2464Y2739D01*
X2454D01*
X2449Y2744D01*
X2407Y2453D02*
X2402Y2458D01*
X2392D01*
X2387Y2453D01*
Y2433D01*
X2392Y2428D01*
X2402D01*
X2407Y2433D01*
X2417Y2458D02*
Y2428D01*
X2437D01*
X2447Y2458D02*
Y2428D01*
Y2438D01*
X2467Y2458D01*
X2452Y2443D01*
X2467Y2428D01*
X2385Y2310D02*
X2405D01*
X2395D01*
Y2280D01*
X2415Y2310D02*
X2435Y2280D01*
Y2310D02*
X2415Y2280D01*
X3160Y3059D02*
Y3089D01*
X3175D01*
X3180Y3084D01*
Y3074D01*
X3175Y3069D01*
X3160D01*
X3170D02*
X3180Y3059D01*
X3210Y3089D02*
X3190D01*
Y3059D01*
X3210D01*
X3190Y3074D02*
X3200D01*
X3220Y3059D02*
X3230D01*
X3225D01*
Y3089D01*
X3220Y3084D01*
X3793Y3079D02*
X3763D01*
Y3094D01*
X3768Y3099D01*
X3778D01*
X3783Y3094D01*
Y3079D01*
Y3089D02*
X3793Y3099D01*
Y3129D02*
Y3109D01*
X3773Y3129D01*
X3768D01*
X3763Y3124D01*
Y3114D01*
X3768Y3109D01*
Y3139D02*
X3763Y3144D01*
Y3154D01*
X3768Y3159D01*
X3788D01*
X3793Y3154D01*
Y3144D01*
X3788Y3139D01*
X3768D01*
X3868Y2953D02*
X3838D01*
Y2968D01*
X3843Y2973D01*
X3853D01*
X3858Y2968D01*
Y2953D01*
Y2963D02*
X3868Y2973D01*
Y2983D02*
Y2993D01*
Y2988D01*
X3838D01*
X3843Y2983D01*
X3863Y3008D02*
X3868Y3013D01*
Y3023D01*
X3863Y3028D01*
X3843D01*
X3838Y3023D01*
Y3013D01*
X3843Y3008D01*
X3848D01*
X3853Y3013D01*
Y3028D01*
X3799Y2411D02*
X3769D01*
Y2426D01*
X3774Y2431D01*
X3784D01*
X3789Y2426D01*
Y2411D01*
Y2421D02*
X3799Y2431D01*
Y2441D02*
Y2451D01*
Y2446D01*
X3769D01*
X3774Y2441D01*
Y2466D02*
X3769Y2471D01*
Y2481D01*
X3774Y2486D01*
X3779D01*
X3784Y2481D01*
X3789Y2486D01*
X3794D01*
X3799Y2481D01*
Y2471D01*
X3794Y2466D01*
X3789D01*
X3784Y2471D01*
X3779Y2466D01*
X3774D01*
X3784Y2471D02*
Y2481D01*
X3863Y2560D02*
X3833D01*
Y2575D01*
X3838Y2580D01*
X3848D01*
X3853Y2575D01*
Y2560D01*
Y2570D02*
X3863Y2580D01*
Y2590D02*
Y2600D01*
Y2595D01*
X3833D01*
X3838Y2590D01*
X3833Y2615D02*
Y2635D01*
X3838D01*
X3858Y2615D01*
X3863D01*
X2389Y3468D02*
X2419D01*
Y3453D01*
X2414Y3448D01*
X2404D01*
X2399Y3453D01*
Y3468D01*
Y3458D02*
X2389Y3448D01*
X2384Y3438D02*
Y3418D01*
X2419Y3408D02*
Y3388D01*
Y3398D01*
X2389D01*
X2419Y3358D02*
Y3378D01*
X2389D01*
Y3358D01*
X2404Y3378D02*
Y3368D01*
X2389Y3348D02*
X2419D01*
Y3333D01*
X2414Y3328D01*
X2404D01*
X2399Y3333D01*
Y3348D01*
Y3338D02*
X2389Y3328D01*
Y3318D02*
X2419D01*
X2409Y3308D01*
X2419Y3298D01*
X2389D01*
X3315Y3893D02*
Y3923D01*
X3330D01*
X3335Y3918D01*
Y3908D01*
X3330Y3903D01*
X3315D01*
X3325D02*
X3335Y3893D01*
X3345D02*
X3355D01*
X3350D01*
Y3923D01*
X3345Y3918D01*
X3390Y3923D02*
X3370D01*
Y3908D01*
X3380Y3913D01*
X3385D01*
X3390Y3908D01*
Y3898D01*
X3385Y3893D01*
X3375D01*
X3370Y3898D01*
X3222Y3591D02*
Y3621D01*
X3237D01*
X3242Y3616D01*
Y3606D01*
X3237Y3601D01*
X3222D01*
X3232D02*
X3242Y3591D01*
X3252D02*
X3262D01*
X3257D01*
Y3621D01*
X3252Y3616D01*
X3292Y3591D02*
Y3621D01*
X3277Y3606D01*
X3297D01*
X4073Y2297D02*
X4043D01*
Y2312D01*
X4048Y2317D01*
X4058D01*
X4063Y2312D01*
Y2297D01*
Y2307D02*
X4073Y2317D01*
Y2327D02*
Y2337D01*
Y2332D01*
X4043D01*
X4048Y2327D01*
Y2352D02*
X4043Y2357D01*
Y2367D01*
X4048Y2372D01*
X4053D01*
X4058Y2367D01*
Y2362D01*
Y2367D01*
X4063Y2372D01*
X4068D01*
X4073Y2367D01*
Y2357D01*
X4068Y2352D01*
X4276Y2052D02*
Y2082D01*
X4291D01*
X4296Y2077D01*
Y2067D01*
X4291Y2062D01*
X4276D01*
X4286D02*
X4296Y2052D01*
X4306D02*
X4316D01*
X4311D01*
Y2082D01*
X4306Y2077D01*
X4351Y2052D02*
X4331D01*
X4351Y2072D01*
Y2077D01*
X4346Y2082D01*
X4336D01*
X4331Y2077D01*
X3992Y2297D02*
X3962D01*
Y2312D01*
X3967Y2317D01*
X3977D01*
X3982Y2312D01*
Y2297D01*
Y2307D02*
X3992Y2317D01*
Y2327D02*
Y2337D01*
Y2332D01*
X3962D01*
X3967Y2327D01*
X3992Y2352D02*
Y2362D01*
Y2357D01*
X3962D01*
X3967Y2352D01*
X4240Y2297D02*
X4210D01*
Y2312D01*
X4215Y2317D01*
X4225D01*
X4230Y2312D01*
Y2297D01*
Y2307D02*
X4240Y2317D01*
Y2327D02*
Y2337D01*
Y2332D01*
X4210D01*
X4215Y2327D01*
Y2352D02*
X4210Y2357D01*
Y2367D01*
X4215Y2372D01*
X4235D01*
X4240Y2367D01*
Y2357D01*
X4235Y2352D01*
X4215D01*
X4158Y2297D02*
X4128D01*
Y2312D01*
X4133Y2317D01*
X4143D01*
X4148Y2312D01*
Y2297D01*
Y2307D02*
X4158Y2317D01*
X4153Y2327D02*
X4158Y2332D01*
Y2342D01*
X4153Y2347D01*
X4133D01*
X4128Y2342D01*
Y2332D01*
X4133Y2327D01*
X4138D01*
X4143Y2332D01*
Y2347D01*
X4218Y4102D02*
X4248D01*
Y4087D01*
X4243Y4082D01*
X4233D01*
X4228Y4087D01*
Y4102D01*
Y4092D02*
X4218Y4082D01*
X4243Y4072D02*
X4248Y4067D01*
Y4057D01*
X4243Y4052D01*
X4238D01*
X4233Y4057D01*
X4228Y4052D01*
X4223D01*
X4218Y4057D01*
Y4067D01*
X4223Y4072D01*
X4228D01*
X4233Y4067D01*
X4238Y4072D01*
X4243D01*
X4233Y4067D02*
Y4057D01*
X3976Y4102D02*
X4006D01*
Y4087D01*
X4001Y4082D01*
X3991D01*
X3986Y4087D01*
Y4102D01*
Y4092D02*
X3976Y4082D01*
X4006Y4072D02*
Y4052D01*
X4001D01*
X3981Y4072D01*
X3976D01*
X3733Y4103D02*
X3763D01*
Y4088D01*
X3758Y4083D01*
X3748D01*
X3743Y4088D01*
Y4103D01*
Y4093D02*
X3733Y4083D01*
X3763Y4053D02*
X3758Y4063D01*
X3748Y4073D01*
X3738D01*
X3733Y4068D01*
Y4058D01*
X3738Y4053D01*
X3743D01*
X3748Y4058D01*
Y4073D01*
X3488Y4103D02*
X3518D01*
Y4088D01*
X3513Y4083D01*
X3503D01*
X3498Y4088D01*
Y4103D01*
Y4093D02*
X3488Y4083D01*
X3518Y4053D02*
Y4073D01*
X3503D01*
X3508Y4063D01*
Y4058D01*
X3503Y4053D01*
X3493D01*
X3488Y4058D01*
Y4068D01*
X3493Y4073D01*
X4158Y3858D02*
X4188D01*
Y3843D01*
X4183Y3838D01*
X4173D01*
X4168Y3843D01*
Y3858D01*
Y3848D02*
X4158Y3838D01*
Y3813D02*
X4188D01*
X4173Y3828D01*
Y3808D01*
X3908Y3859D02*
X3938D01*
Y3844D01*
X3933Y3839D01*
X3923D01*
X3918Y3844D01*
Y3859D01*
Y3849D02*
X3908Y3839D01*
X3933Y3829D02*
X3938Y3824D01*
Y3814D01*
X3933Y3809D01*
X3928D01*
X3923Y3814D01*
Y3819D01*
Y3814D01*
X3918Y3809D01*
X3913D01*
X3908Y3814D01*
Y3824D01*
X3913Y3829D01*
X3667Y3860D02*
X3697D01*
Y3845D01*
X3692Y3840D01*
X3682D01*
X3677Y3845D01*
Y3860D01*
Y3850D02*
X3667Y3840D01*
Y3810D02*
Y3830D01*
X3687Y3810D01*
X3692D01*
X3697Y3815D01*
Y3825D01*
X3692Y3830D01*
X4394Y3858D02*
X4424D01*
Y3843D01*
X4419Y3838D01*
X4409D01*
X4404Y3843D01*
Y3858D01*
Y3848D02*
X4394Y3838D01*
Y3828D02*
Y3818D01*
Y3823D01*
X4424D01*
X4419Y3828D01*
X4346Y4072D02*
Y4092D01*
X4341Y4097D01*
X4331D01*
X4326Y4092D01*
Y4072D01*
X4331Y4067D01*
X4341D01*
X4336Y4077D02*
X4346Y4067D01*
X4341D02*
X4346Y4072D01*
X4371Y4067D02*
Y4097D01*
X4356Y4082D01*
X4376D01*
X4104Y4073D02*
Y4093D01*
X4099Y4098D01*
X4089D01*
X4084Y4093D01*
Y4073D01*
X4089Y4068D01*
X4099D01*
X4094Y4078D02*
X4104Y4068D01*
X4099D02*
X4104Y4073D01*
X4114Y4093D02*
X4119Y4098D01*
X4129D01*
X4134Y4093D01*
Y4088D01*
X4129Y4083D01*
X4124D01*
X4129D01*
X4134Y4078D01*
Y4073D01*
X4129Y4068D01*
X4119D01*
X4114Y4073D01*
X3861Y4072D02*
Y4092D01*
X3856Y4097D01*
X3846D01*
X3841Y4092D01*
Y4072D01*
X3846Y4067D01*
X3856D01*
X3851Y4077D02*
X3861Y4067D01*
X3856D02*
X3861Y4072D01*
X3891Y4067D02*
X3871D01*
X3891Y4087D01*
Y4092D01*
X3886Y4097D01*
X3876D01*
X3871Y4092D01*
X3612Y4074D02*
Y4094D01*
X3607Y4099D01*
X3597D01*
X3592Y4094D01*
Y4074D01*
X3597Y4069D01*
X3607D01*
X3602Y4079D02*
X3612Y4069D01*
X3607D02*
X3612Y4074D01*
X3622Y4069D02*
X3632D01*
X3627D01*
Y4099D01*
X3622Y4094D01*
X4449Y4251D02*
Y4281D01*
X4464D01*
X4469Y4276D01*
Y4266D01*
X4464Y4261D01*
X4449D01*
X4499Y4251D02*
X4479D01*
X4499Y4271D01*
Y4276D01*
X4494Y4281D01*
X4484D01*
X4479Y4276D01*
X2049Y4250D02*
Y4280D01*
X2064D01*
X2069Y4275D01*
Y4265D01*
X2064Y4260D01*
X2049D01*
X2079Y4250D02*
X2089D01*
X2084D01*
Y4280D01*
X2079Y4275D01*
X3892Y2094D02*
X3882D01*
X3877Y2089D01*
Y2069D01*
X3882Y2064D01*
X3892D01*
X3897Y2069D01*
Y2089D01*
X3892Y2094D01*
X3907Y2064D02*
X3917D01*
X3912D01*
Y2094D01*
X3907Y2089D01*
X2974Y4299D02*
X2964D01*
X2969D01*
Y4274D01*
X2964Y4269D01*
X2959D01*
X2954Y4274D01*
X2984Y4269D02*
X2994D01*
X2989D01*
Y4299D01*
X2984Y4294D01*
X4249Y3731D02*
X4219D01*
Y3716D01*
X4224Y3711D01*
X4244D01*
X4249Y3716D01*
Y3731D01*
X4219Y3686D02*
X4249D01*
X4234Y3701D01*
Y3681D01*
X4034Y3732D02*
X4004D01*
Y3717D01*
X4009Y3712D01*
X4029D01*
X4034Y3717D01*
Y3732D01*
X4029Y3702D02*
X4034Y3697D01*
Y3687D01*
X4029Y3682D01*
X4024D01*
X4019Y3687D01*
Y3692D01*
Y3687D01*
X4014Y3682D01*
X4009D01*
X4004Y3687D01*
Y3697D01*
X4009Y3702D01*
X3791Y3732D02*
X3761D01*
Y3717D01*
X3766Y3712D01*
X3786D01*
X3791Y3717D01*
Y3732D01*
X3761Y3682D02*
Y3702D01*
X3781Y3682D01*
X3786D01*
X3791Y3687D01*
Y3697D01*
X3786Y3702D01*
X3542Y3727D02*
X3512D01*
Y3712D01*
X3517Y3707D01*
X3537D01*
X3542Y3712D01*
Y3727D01*
X3512Y3697D02*
Y3687D01*
Y3692D01*
X3542D01*
X3537Y3697D01*
X3903Y2974D02*
X3898Y2969D01*
Y2959D01*
X3903Y2954D01*
X3923D01*
X3928Y2959D01*
Y2969D01*
X3923Y2974D01*
X3928Y2984D02*
Y2994D01*
Y2989D01*
X3898D01*
X3903Y2984D01*
X3928Y3029D02*
Y3009D01*
X3908Y3029D01*
X3903D01*
X3898Y3024D01*
Y3014D01*
X3903Y3009D01*
X3900Y2588D02*
X3895Y2583D01*
Y2573D01*
X3900Y2568D01*
X3920D01*
X3925Y2573D01*
Y2583D01*
X3920Y2588D01*
X3925Y2598D02*
Y2608D01*
Y2603D01*
X3895D01*
X3900Y2598D01*
X3925Y2623D02*
Y2633D01*
Y2628D01*
X3895D01*
X3900Y2623D01*
X2951Y3574D02*
X2946Y3579D01*
X2936D01*
X2931Y3574D01*
Y3554D01*
X2936Y3549D01*
X2946D01*
X2951Y3554D01*
X2961Y3549D02*
X2971D01*
X2966D01*
Y3579D01*
X2961Y3574D01*
X2986D02*
X2991Y3579D01*
X3001D01*
X3006Y3574D01*
Y3554D01*
X3001Y3549D01*
X2991D01*
X2986Y3554D01*
Y3574D01*
X3073Y3945D02*
X3068Y3950D01*
X3058D01*
X3053Y3945D01*
Y3925D01*
X3058Y3920D01*
X3068D01*
X3073Y3925D01*
X3083D02*
X3088Y3920D01*
X3098D01*
X3103Y3925D01*
Y3945D01*
X3098Y3950D01*
X3088D01*
X3083Y3945D01*
Y3940D01*
X3088Y3935D01*
X3103D01*
X4298Y2320D02*
X4293Y2315D01*
Y2305D01*
X4298Y2300D01*
X4318D01*
X4323Y2305D01*
Y2315D01*
X4318Y2320D01*
X4298Y2330D02*
X4293Y2335D01*
Y2345D01*
X4298Y2350D01*
X4303D01*
X4308Y2345D01*
X4313Y2350D01*
X4318D01*
X4323Y2345D01*
Y2335D01*
X4318Y2330D01*
X4313D01*
X4308Y2335D01*
X4303Y2330D01*
X4298D01*
X4308Y2335D02*
Y2345D01*
X4109Y3491D02*
X4104Y3496D01*
X4094D01*
X4089Y3491D01*
Y3471D01*
X4094Y3466D01*
X4104D01*
X4109Y3471D01*
X4119Y3496D02*
X4139D01*
Y3491D01*
X4119Y3471D01*
Y3466D01*
X4010Y3491D02*
X4005Y3496D01*
X3995D01*
X3990Y3491D01*
Y3471D01*
X3995Y3466D01*
X4005D01*
X4010Y3471D01*
X4040Y3496D02*
X4030Y3491D01*
X4020Y3481D01*
Y3471D01*
X4025Y3466D01*
X4035D01*
X4040Y3471D01*
Y3476D01*
X4035Y3481D01*
X4020D01*
X3812Y3490D02*
X3807Y3495D01*
X3797D01*
X3792Y3490D01*
Y3470D01*
X3797Y3465D01*
X3807D01*
X3812Y3470D01*
X3842Y3495D02*
X3822D01*
Y3480D01*
X3832Y3485D01*
X3837D01*
X3842Y3480D01*
Y3470D01*
X3837Y3465D01*
X3827D01*
X3822Y3470D01*
X3911Y3491D02*
X3906Y3496D01*
X3896D01*
X3891Y3491D01*
Y3471D01*
X3896Y3466D01*
X3906D01*
X3911Y3471D01*
X3936Y3466D02*
Y3496D01*
X3921Y3481D01*
X3941D01*
X4366Y2941D02*
X4361Y2946D01*
X4351D01*
X4346Y2941D01*
Y2921D01*
X4351Y2916D01*
X4361D01*
X4366Y2921D01*
X4376Y2941D02*
X4381Y2946D01*
X4391D01*
X4396Y2941D01*
Y2936D01*
X4391Y2931D01*
X4386D01*
X4391D01*
X4396Y2926D01*
Y2921D01*
X4391Y2916D01*
X4381D01*
X4376Y2921D01*
X4286Y2942D02*
X4281Y2947D01*
X4271D01*
X4266Y2942D01*
Y2922D01*
X4271Y2917D01*
X4281D01*
X4286Y2922D01*
X4316Y2917D02*
X4296D01*
X4316Y2937D01*
Y2942D01*
X4311Y2947D01*
X4301D01*
X4296Y2942D01*
X4031Y2868D02*
X4026Y2873D01*
X4016D01*
X4011Y2868D01*
Y2848D01*
X4016Y2843D01*
X4026D01*
X4031Y2848D01*
X4041Y2843D02*
X4051D01*
X4046D01*
Y2873D01*
X4041Y2868D01*
X2566Y2481D02*
Y2451D01*
X2581D01*
X2586Y2456D01*
Y2461D01*
X2581Y2466D01*
X2566D01*
X2581D01*
X2586Y2471D01*
Y2476D01*
X2581Y2481D01*
X2566D01*
X2616Y2451D02*
X2596D01*
X2616Y2471D01*
Y2476D01*
X2611Y2481D01*
X2601D01*
X2596Y2476D01*
X3145Y2484D02*
Y2454D01*
X3160D01*
X3165Y2459D01*
Y2464D01*
X3160Y2469D01*
X3145D01*
X3160D01*
X3165Y2474D01*
Y2479D01*
X3160Y2484D01*
X3145D01*
X3175Y2454D02*
X3185D01*
X3180D01*
Y2484D01*
X3175Y2479D01*
X4183Y3524D02*
Y3499D01*
X4188Y3494D01*
X4198D01*
X4203Y3499D01*
Y3524D01*
X4213Y3519D02*
X4218Y3524D01*
X4228D01*
X4233Y3519D01*
Y3514D01*
X4228Y3509D01*
X4223D01*
X4228D01*
X4233Y3504D01*
Y3499D01*
X4228Y3494D01*
X4218D01*
X4213Y3499D01*
X4311Y3570D02*
X4291Y3590D01*
X4301Y3580D01*
X4291Y3570D01*
X4311Y3590D01*
X4356Y3533D02*
Y3518D01*
X4361Y3513D01*
X4376D01*
Y3508D01*
X4371Y3503D01*
X4366D01*
X4376Y3513D02*
Y3533D01*
X4288Y3507D02*
X4268D01*
X4288Y3527D01*
X4268D01*
X4411Y2535D02*
X4431D01*
X4411Y2515D01*
X4431D01*
X4331Y2532D02*
Y2517D01*
X4336Y2512D01*
X4351D01*
Y2507D01*
X4346Y2502D01*
X4341D01*
X4351Y2512D02*
Y2532D01*
X4386Y2477D02*
X4406Y2457D01*
X4396Y2467D01*
X4406Y2477D01*
X4386Y2457D01*
X4583Y2080D02*
Y2110D01*
X4568Y2095D01*
X4588D01*
X4598Y2105D02*
X4603Y2110D01*
X4613D01*
X4618Y2105D01*
Y2085D01*
X4613Y2080D01*
X4603D01*
X4598Y2085D01*
Y2105D01*
X4469D02*
X4474Y2110D01*
X4483D01*
X4488Y2105D01*
Y2100D01*
X4483Y2095D01*
X4479D01*
X4483D01*
X4488Y2090D01*
Y2085D01*
X4483Y2080D01*
X4474D01*
X4469Y2085D01*
X4498D02*
X4503Y2080D01*
X4513D01*
X4518Y2085D01*
Y2105D01*
X4513Y2110D01*
X4503D01*
X4498Y2105D01*
Y2100D01*
X4503Y2095D01*
X4518D01*
X4605Y4187D02*
X4585D01*
X4605Y4207D01*
Y4212D01*
X4600Y4217D01*
X4590D01*
X4585Y4212D01*
X4491Y4186D02*
X4501D01*
X4496D01*
Y4216D01*
X4491Y4211D01*
X2183Y2072D02*
Y2102D01*
X2168Y2087D01*
X2188D01*
X2198Y2097D02*
X2203Y2102D01*
X2213D01*
X2218Y2097D01*
Y2077D01*
X2213Y2072D01*
X2203D01*
X2198Y2077D01*
Y2097D01*
X2069Y2100D02*
X2074Y2105D01*
X2084D01*
X2089Y2100D01*
Y2095D01*
X2084Y2090D01*
X2079D01*
X2084D01*
X2089Y2085D01*
Y2080D01*
X2084Y2075D01*
X2074D01*
X2069Y2080D01*
X2099D02*
X2104Y2075D01*
X2114D01*
X2119Y2080D01*
Y2100D01*
X2114Y2105D01*
X2104D01*
X2099Y2100D01*
Y2095D01*
X2104Y2090D01*
X2119D01*
X2205Y4186D02*
X2185D01*
X2205Y4206D01*
Y4211D01*
X2200Y4216D01*
X2190D01*
X2185Y4211D01*
X2089Y4184D02*
X2099D01*
X2094D01*
Y4214D01*
X2089Y4209D01*
D47*
X3513Y3566D02*
Y3595D01*
X3528D01*
X3532Y3591D01*
Y3581D01*
X3528Y3576D01*
X3513D01*
X3523D02*
X3532Y3566D01*
X3547Y3586D02*
X3557D01*
X3562Y3581D01*
Y3566D01*
X3547D01*
X3542Y3571D01*
X3547Y3576D01*
X3562D01*
X3572Y3556D02*
X3577D01*
X3582Y3561D01*
Y3586D01*
X3631Y3566D02*
Y3595D01*
X3641Y3586D01*
X3651Y3595D01*
Y3566D01*
X3665D02*
X3675D01*
X3680Y3571D01*
Y3581D01*
X3675Y3586D01*
X3665D01*
X3660Y3581D01*
Y3571D01*
X3665Y3566D01*
X3710Y3595D02*
Y3566D01*
X3695D01*
X3690Y3571D01*
Y3581D01*
X3695Y3586D01*
X3710D01*
X3719D02*
Y3571D01*
X3724Y3566D01*
X3739D01*
Y3561D01*
X3734Y3556D01*
X3729D01*
X3739Y3566D02*
Y3586D01*
X3754Y3561D02*
X3759Y3566D01*
Y3571D01*
X3754D01*
Y3566D01*
X3759D01*
X3754Y3561D01*
X3749Y3556D01*
X3828Y3595D02*
X3808D01*
Y3566D01*
X3828D01*
X3808Y3581D02*
X3818D01*
X3837Y3586D02*
Y3566D01*
Y3576D01*
X3842Y3581D01*
X3847Y3586D01*
X3852D01*
X3882Y3566D02*
X3872D01*
X3867Y3571D01*
Y3581D01*
X3872Y3586D01*
X3882D01*
X3887Y3581D01*
Y3576D01*
X3867D01*
X3897Y3566D02*
Y3586D01*
X3911D01*
X3916Y3581D01*
Y3566D01*
X3956D02*
Y3595D01*
X3970D01*
X3975Y3591D01*
Y3581D01*
X3970Y3576D01*
X3956D01*
X3965D02*
X3975Y3566D01*
X3985Y3586D02*
Y3571D01*
X3990Y3566D01*
X4005D01*
Y3586D01*
X4034Y3595D02*
Y3566D01*
X4020D01*
X4015Y3571D01*
Y3581D01*
X4020Y3586D01*
X4034D01*
X4044D02*
Y3571D01*
X4049Y3566D01*
X4064D01*
Y3561D01*
X4059Y3556D01*
X4054D01*
X4064Y3566D02*
Y3586D01*
X3513Y3620D02*
Y3650D01*
X3532Y3620D01*
Y3650D01*
X3542Y3640D02*
Y3625D01*
X3547Y3620D01*
X3562D01*
Y3640D01*
X3592D02*
X3577D01*
X3572Y3635D01*
Y3625D01*
X3577Y3620D01*
X3592D01*
X3601D02*
X3611D01*
X3606D01*
Y3650D01*
X3601D01*
X3641Y3620D02*
X3631D01*
X3626Y3625D01*
Y3635D01*
X3631Y3640D01*
X3641D01*
X3646Y3635D01*
Y3630D01*
X3626D01*
X3660Y3620D02*
X3670D01*
X3675Y3625D01*
Y3635D01*
X3670Y3640D01*
X3660D01*
X3655Y3635D01*
Y3625D01*
X3660Y3620D01*
X3734Y3645D02*
X3729Y3650D01*
X3719D01*
X3715Y3645D01*
Y3640D01*
X3719Y3635D01*
X3729D01*
X3734Y3630D01*
Y3625D01*
X3729Y3620D01*
X3719D01*
X3715Y3625D01*
X3744Y3650D02*
Y3620D01*
Y3635D01*
X3749Y3640D01*
X3759D01*
X3764Y3635D01*
Y3620D01*
X3774D02*
X3783D01*
X3778D01*
Y3640D01*
X3774D01*
X3813Y3620D02*
X3803D01*
X3798Y3625D01*
Y3635D01*
X3803Y3640D01*
X3813D01*
X3818Y3635D01*
Y3630D01*
X3798D01*
X3828Y3620D02*
X3837D01*
X3833D01*
Y3650D01*
X3828D01*
X3872D02*
Y3620D01*
X3857D01*
X3852Y3625D01*
Y3635D01*
X3857Y3640D01*
X3872D01*
X3931Y3620D02*
X3911D01*
X3931Y3640D01*
Y3645D01*
X3926Y3650D01*
X3916D01*
X3911Y3645D01*
X3941D02*
X3946Y3650D01*
X3956D01*
X3960Y3645D01*
Y3625D01*
X3956Y3620D01*
X3946D01*
X3941Y3625D01*
Y3645D01*
X3970Y3620D02*
X3980D01*
X3975D01*
Y3650D01*
X3970Y3645D01*
X3995Y3650D02*
X4015D01*
Y3645D01*
X3995Y3625D01*
Y3620D01*
D48*
X4291Y3756D02*
X4301D01*
X4306Y3751D01*
X4301Y3746D01*
X4291D01*
X4299D01*
Y3756D01*
X4058Y3757D02*
X4068D01*
X4073Y3752D01*
X4068Y3747D01*
X4058D01*
X4066D01*
Y3757D01*
X3812Y3756D02*
X3822D01*
X3827Y3751D01*
X3822Y3746D01*
X3812D01*
X3820D01*
Y3756D01*
X3566Y3756D02*
X3576D01*
X3581Y3751D01*
X3576Y3746D01*
X3566D01*
X3573D01*
Y3756D01*
M02*
